<?xml version="1.0" standalone="no"?><!-- Generator: Gravit.io --><svg xmlns="http://www.w3.org/2000/svg" xmlns:xlink="http://www.w3.org/1999/xlink" style="isolation:isolate" viewBox="0 0 1920 1080" width="1920" height="1080"><defs><clipPath id="_clipPath_cPHjN3EKqs8AAXhBGK7A8ISrb3OhOJ9i"><rect width="1920" height="1080"/></clipPath></defs><g clip-path="url(#_clipPath_cPHjN3EKqs8AAXhBGK7A8ISrb3OhOJ9i)"><rect width="1920" height="1080" style="fill:rgb(0,0,0)" fill-opacity="0"/><path d=" M 960 44.25 C 686.205 44.25 464.25 266.205 464.25 540 C 464.25 813.795 686.205 1035.75 960 1035.75 C 1233.795 1035.75 1455.75 813.795 1455.75 540 C 1455.75 266.205 1233.795 44.25 960 44.25 Z  M 960 931.228 C 743.931 931.228 568.772 756.07 568.772 540 C 568.772 323.931 743.931 148.772 960 148.772 C 1176.069 148.772 1351.228 323.931 1351.228 540 C 1351.228 756.069 1176.069 931.228 960 931.228 Z " fill="rgb(36,36,73)"/><path d=" M 960 231.257 C 789.486 231.257 651.257 369.486 651.257 540 C 651.257 710.514 789.486 848.743 960 848.743 C 1130.514 848.743 1268.743 710.514 1268.743 540 C 1268.743 369.486 1130.514 231.257 960 231.257 Z  M 960 783.649 C 825.436 783.649 716.351 674.563 716.351 540 C 716.351 405.437 825.436 296.352 960 296.352 C 1094.564 296.352 1203.649 405.437 1203.649 540 C 1203.649 674.563 1094.564 783.649 960 783.649 Z " fill="rgb(36,36,73)"/><g><g><path d=" M 1181.333 69.294 C 1184.959 69.294 1184.959 63.67 1181.333 63.67 C 1177.706 63.67 1177.706 69.294 1181.333 69.294 L 1181.333 69.294 Z " fill="rgb(255,255,255)"/></g><g><path d=" M 1292.308 163.772 C 1295.935 163.772 1295.935 158.149 1292.308 158.149 C 1288.681 158.149 1288.681 163.772 1292.308 163.772 L 1292.308 163.772 Z " fill="rgb(255,255,255)"/></g><g><path d=" M 1206.827 219.26 C 1210.454 219.26 1210.454 213.636 1206.827 213.636 C 1203.201 213.636 1203.201 219.26 1206.827 219.26 L 1206.827 219.26 Z " fill="rgb(255,255,255)"/></g><g><path d=" M 1373.29 91.789 C 1376.916 91.789 1376.916 86.165 1373.29 86.165 C 1369.663 86.165 1369.663 91.789 1373.29 91.789 L 1373.29 91.789 Z " fill="rgb(255,255,255)"/></g><g><path d=" M 1476.72 492.948 C 1480.347 492.948 1480.347 487.325 1476.72 487.325 C 1473.093 487.325 1473.093 492.948 1476.72 492.948 L 1476.72 492.948 Z " fill="rgb(255,255,255)"/></g><g><path d=" M 1331.299 370.726 C 1334.926 370.726 1334.926 365.102 1331.299 365.102 C 1327.673 365.102 1327.673 370.726 1331.299 370.726 L 1331.299 370.726 Z " fill="rgb(255,255,255)"/></g><g><path d=" M 1185.832 390.221 C 1189.458 390.221 1189.458 384.598 1185.832 384.598 C 1182.205 384.598 1182.205 390.221 1185.832 390.221 L 1185.832 390.221 Z " fill="rgb(255,255,255)"/></g><g><path d=" M 1202.328 319.737 C 1205.955 319.737 1205.955 314.114 1202.328 314.114 C 1198.702 314.114 1198.702 319.737 1202.328 319.737 L 1202.328 319.737 Z " fill="rgb(255,255,255)"/></g><g><path d=" M 1253.317 501.196 C 1256.943 501.196 1256.943 495.573 1253.317 495.573 C 1249.69 495.573 1249.69 501.196 1253.317 501.196 L 1253.317 501.196 Z " fill="rgb(255,255,255)"/></g><g><path d=" M 1184.332 612.171 C 1187.959 612.171 1187.959 606.548 1184.332 606.548 C 1180.706 606.548 1180.706 612.171 1184.332 612.171 L 1184.332 612.171 Z " fill="rgb(255,255,255)"/></g><g><path d=" M 1337.298 627.168 C 1340.924 627.168 1340.924 621.544 1337.298 621.544 C 1333.671 621.544 1333.671 627.168 1337.298 627.168 L 1337.298 627.168 Z " fill="rgb(255,255,255)"/></g><g><path d=" M 1528.72 724.271 C 1532.346 724.271 1532.346 718.647 1528.72 718.647 C 1525.093 718.647 1525.093 724.271 1528.72 724.271 L 1528.72 724.271 Z " fill="rgb(255,255,255)"/></g><g><path d=" M 1226.323 795.13 C 1229.949 795.13 1229.949 789.507 1226.323 789.507 C 1222.696 789.507 1222.696 795.13 1226.323 795.13 L 1226.323 795.13 Z " fill="rgb(255,255,255)"/></g><g><path d=" M 1331.299 990.086 C 1334.926 990.086 1334.926 984.463 1331.299 984.463 C 1327.673 984.463 1327.673 990.086 1331.299 990.086 L 1331.299 990.086 Z " fill="rgb(255,255,255)"/></g><g><path d=" M 1160.338 715.648 C 1163.964 715.648 1163.964 710.024 1160.338 710.024 C 1156.711 710.024 1156.711 715.648 1160.338 715.648 L 1160.338 715.648 Z " fill="rgb(255,255,255)"/></g><g><path d=" M 1232.321 706.65 C 1235.948 706.65 1235.948 701.026 1232.321 701.026 C 1228.695 701.026 1228.695 706.65 1232.321 706.65 L 1232.321 706.65 Z " fill="rgb(255,255,255)"/></g><g><path d=" M 1805.72 506.82 C 1809.346 506.82 1809.346 501.196 1805.72 501.196 C 1802.093 501.196 1802.093 506.82 1805.72 506.82 L 1805.72 506.82 Z " fill="rgb(255,255,255)"/></g><g><path d=" M 564.031 67.044 C 567.657 67.044 567.657 61.42 564.031 61.42 C 560.404 61.42 560.404 67.044 564.031 67.044 L 564.031 67.044 Z " fill="rgb(255,255,255)"/></g><g><path d=" M 144.28 94.6 C 147.907 94.6 147.907 88.977 144.28 88.977 C 140.654 88.977 140.654 94.6 144.28 94.6 L 144.28 94.6 Z " fill="rgb(255,255,255)"/></g><g><path d=" M 589.525 217.01 C 593.152 217.01 593.152 211.387 589.525 211.387 C 585.899 211.387 585.899 217.01 589.525 217.01 L 589.525 217.01 Z " fill="rgb(255,255,255)"/></g><g><path d=" M 1087.413 229.008 C 1091.04 229.008 1091.04 223.384 1087.413 223.384 C 1083.786 223.384 1083.786 229.008 1087.413 229.008 L 1087.413 229.008 Z " fill="rgb(255,255,255)"/></g><g><path d=" M 908.953 267.999 C 912.58 267.999 912.58 262.375 908.953 262.375 C 905.327 262.375 905.327 267.999 908.953 267.999 L 908.953 267.999 Z " fill="rgb(255,255,255)"/></g><g><path d=" M 995.934 176.519 C 999.56 176.519 999.56 170.896 995.934 170.896 C 992.307 170.896 992.307 176.519 995.934 176.519 L 995.934 176.519 Z " fill="rgb(255,255,255)"/></g><g><path d=" M 902.955 98.537 C 906.581 98.537 906.581 92.913 902.955 92.913 C 899.328 92.913 899.328 98.537 902.955 98.537 L 902.955 98.537 Z " fill="rgb(255,255,255)"/></g><g><path d=" M 802.477 248.503 C 806.104 248.503 806.104 242.88 802.477 242.88 C 798.851 242.88 798.851 248.503 802.477 248.503 L 802.477 248.503 Z " fill="rgb(255,255,255)"/></g><g><path d=" M 964.441 408.967 C 968.067 408.967 968.067 403.343 964.441 403.343 C 960.814 403.343 960.814 408.967 964.441 408.967 L 964.441 408.967 Z " fill="rgb(255,255,255)"/></g><g><path d=" M 1135.402 390.971 C 1139.029 390.971 1139.029 385.347 1135.402 385.347 C 1131.776 385.347 1131.776 390.971 1135.402 390.971 L 1135.402 390.971 Z " fill="rgb(255,255,255)"/></g><g><path d=" M 30.72 403.343 C 34.346 403.343 34.346 397.72 30.72 397.72 C 27.093 397.72 27.093 403.343 30.72 403.343 L 30.72 403.343 Z " fill="rgb(255,255,255)"/></g><g><path d=" M 713.997 368.476 C 717.624 368.476 717.624 362.853 713.997 362.853 C 710.37 362.853 710.37 368.476 713.997 368.476 L 713.997 368.476 Z " fill="rgb(255,255,255)"/></g><g><path d=" M 848.967 381.973 C 852.593 381.973 852.593 376.349 848.967 376.349 C 845.34 376.349 845.34 381.973 848.967 381.973 L 848.967 381.973 Z " fill="rgb(255,255,255)"/></g><g><path d=" M 811.475 482.451 C 815.102 482.451 815.102 476.827 811.475 476.827 C 807.849 476.827 807.849 482.451 811.475 482.451 L 811.475 482.451 Z " fill="rgb(255,255,255)"/></g><g><path d=" M 500.72 362.853 C 504.346 362.853 504.346 357.229 500.72 357.229 C 497.093 357.229 497.093 362.853 500.72 362.853 L 500.72 362.853 Z " fill="rgb(255,255,255)"/></g><g><path d=" M 98.28 735.519 C 101.907 735.519 101.907 729.895 98.28 729.895 C 94.654 729.895 94.654 735.519 98.28 735.519 L 98.28 735.519 Z " fill="rgb(255,255,255)"/></g><g><path d=" M 567.03 609.922 C 570.657 609.922 570.657 604.298 567.03 604.298 C 563.404 604.298 563.404 609.922 567.03 609.922 L 567.03 609.922 Z " fill="rgb(255,255,255)"/></g><g><path d=" M 719.996 624.919 C 723.622 624.919 723.622 619.295 719.996 619.295 C 716.369 619.295 716.369 624.919 719.996 624.919 L 719.996 624.919 Z " fill="rgb(255,255,255)"/></g><g><path d=" M 609.021 792.881 C 612.647 792.881 612.647 787.257 609.021 787.257 C 605.394 787.257 605.394 792.881 609.021 792.881 L 609.021 792.881 Z " fill="rgb(255,255,255)"/></g><g><path d=" M 303.28 830.372 C 306.907 830.372 306.907 824.749 303.28 824.749 C 299.654 824.749 299.654 830.372 303.28 830.372 L 303.28 830.372 Z " fill="rgb(255,255,255)"/></g><g><path d=" M 821.973 740.393 C 825.599 740.393 825.599 734.769 821.973 734.769 C 818.346 734.769 818.346 740.393 821.973 740.393 L 821.973 740.393 Z " fill="rgb(255,255,255)"/></g><g><path d=" M 782.982 644.414 C 786.608 644.414 786.608 638.79 782.982 638.79 C 779.355 638.79 779.355 644.414 782.982 644.414 L 782.982 644.414 Z " fill="rgb(255,255,255)"/></g><g><path d=" M 892.457 585.927 C 896.083 585.927 896.083 580.304 892.457 580.304 C 888.83 580.304 888.83 585.927 892.457 585.927 L 892.457 585.927 Z " fill="rgb(255,255,255)"/></g><g><path d=" M 1800.28 214.198 C 1803.907 214.198 1803.907 208.575 1800.28 208.575 C 1796.654 208.575 1796.654 214.198 1800.28 214.198 L 1800.28 214.198 Z " fill="rgb(255,255,255)"/></g><g><path d=" M 235.72 242.88 C 239.346 242.88 239.346 237.256 235.72 237.256 C 232.093 237.256 232.093 242.88 235.72 242.88 L 235.72 242.88 Z " fill="rgb(255,255,255)"/></g><g><path d=" M 1482.16 882.486 C 1485.786 882.486 1485.786 876.862 1482.16 876.862 C 1478.533 876.862 1478.533 882.486 1482.16 882.486 L 1482.16 882.486 Z " fill="rgb(255,255,255)"/></g><g><path d=" M 1072.416 473.453 C 1076.043 473.453 1076.043 467.829 1072.416 467.829 C 1068.79 467.829 1068.79 473.453 1072.416 473.453 L 1072.416 473.453 Z " fill="rgb(255,255,255)"/></g><g><path d=" M 1120.406 591.926 C 1124.032 591.926 1124.032 586.302 1120.406 586.302 C 1116.779 586.302 1116.779 591.926 1120.406 591.926 L 1120.406 591.926 Z " fill="rgb(255,255,255)"/></g><g><path d=" M 1573.72 289 C 1577.346 289 1577.346 283.376 1573.72 283.376 C 1570.093 283.376 1570.093 289 1573.72 289 L 1573.72 289 Z " fill="rgb(255,255,255)"/></g><g><path d=" M 1877.72 1011.457 C 1881.346 1011.457 1881.346 1005.833 1877.72 1005.833 C 1874.093 1005.833 1874.093 1011.457 1877.72 1011.457 L 1877.72 1011.457 Z " fill="rgb(255,255,255)"/></g><g><path d=" M 1007.931 567.931 C 1011.557 567.931 1011.557 562.308 1007.931 562.308 C 1004.304 562.308 1004.304 567.931 1007.931 567.931 L 1007.931 567.931 Z " fill="rgb(255,255,255)"/></g><g><path d=" M 1627.28 158.149 C 1630.907 158.149 1630.907 152.525 1627.28 152.525 C 1623.654 152.525 1623.654 158.149 1627.28 158.149 L 1627.28 158.149 Z " fill="rgb(255,255,255)"/></g><g><path d=" M 1004.932 729.895 C 1008.558 729.895 1008.558 724.271 1004.932 724.271 C 1001.305 724.271 1001.305 729.895 1004.932 729.895 L 1004.932 729.895 Z " fill="rgb(255,255,255)"/></g><g><path d=" M 1103.909 963.842 C 1107.536 963.842 1107.536 958.219 1103.909 958.219 C 1100.283 958.219 1100.283 963.842 1103.909 963.842 L 1103.909 963.842 Z " fill="rgb(255,255,255)"/></g><g><path d=" M 934.447 1005.833 C 938.074 1005.833 938.074 1000.209 934.447 1000.209 C 930.821 1000.209 930.821 1005.833 934.447 1005.833 L 934.447 1005.833 Z " fill="rgb(255,255,255)"/></g><g><path d=" M 809.975 848.368 C 813.602 848.368 813.602 842.745 809.975 842.745 C 806.349 842.745 806.349 848.368 809.975 848.368 L 809.975 848.368 Z " fill="rgb(255,255,255)"/></g><g><path d=" M 793.479 926.351 C 797.106 926.351 797.106 920.727 793.479 920.727 C 789.853 920.727 789.853 926.351 793.479 926.351 L 793.479 926.351 Z " fill="rgb(255,255,255)"/></g><g><path d=" M 946.445 830.372 C 950.071 830.372 950.071 824.749 946.445 824.749 C 942.818 824.749 942.818 830.372 946.445 830.372 L 946.445 830.372 Z " fill="rgb(255,255,255)"/></g><g><path d=" M 713.997 987.837 C 717.624 987.837 717.624 982.213 713.997 982.213 C 710.37 982.213 710.37 987.837 713.997 987.837 L 713.997 987.837 Z " fill="rgb(255,255,255)"/></g><g><path d=" M 197.72 985.025 C 201.346 985.025 201.346 979.401 197.72 979.401 C 194.093 979.401 194.093 985.025 197.72 985.025 L 197.72 985.025 Z " fill="rgb(255,255,255)"/></g><g><path d=" M 601.522 1001.334 C 605.149 1001.334 605.149 995.71 601.522 995.71 C 597.896 995.71 597.896 1001.334 601.522 1001.334 L 601.522 1001.334 Z " fill="rgb(255,255,255)"/></g><g><path d=" M 364.28 619.295 C 367.907 619.295 367.907 613.671 364.28 613.671 C 360.654 613.671 360.654 619.295 364.28 619.295 L 364.28 619.295 Z " fill="rgb(255,255,255)"/></g><g><path d=" M 615.019 704.401 C 618.646 704.401 618.646 698.777 615.019 698.777 C 611.393 698.777 611.393 704.401 615.019 704.401 L 615.019 704.401 Z " fill="rgb(255,255,255)"/></g><g><path d=" M 180.28 457 C 183.907 457 183.907 451.376 180.28 451.376 C 176.654 451.376 176.654 457 180.28 457 L 180.28 457 Z " fill="rgb(255,255,255)"/></g><g><path d=" M 640.514 417.965 C 644.14 417.965 644.14 412.341 640.514 412.341 C 636.887 412.341 636.887 417.965 640.514 417.965 L 640.514 417.965 Z " fill="rgb(255,255,255)"/></g><g><path d=" M 755.988 170.521 C 759.614 170.521 759.614 164.897 755.988 164.897 C 752.361 164.897 752.361 170.521 755.988 170.521 L 755.988 170.521 Z " fill="rgb(255,255,255)"/></g><g><path d=" M 414.72 130.624 C 418.346 130.624 418.346 125 414.72 125 C 411.093 125 411.093 130.624 414.72 130.624 L 414.72 130.624 Z " fill="rgb(255,255,255)"/></g><g><path d=" M 850.466 53.547 C 854.093 53.547 854.093 47.923 850.466 47.923 C 846.84 47.923 846.84 53.547 850.466 53.547 L 850.466 53.547 Z " fill="rgb(255,255,255)"/></g><g><path d=" M 1851.28 47.923 C 1854.907 47.923 1854.907 42.3 1851.28 42.3 C 1847.654 42.3 1847.654 47.923 1851.28 47.923 L 1851.28 47.923 Z " fill="rgb(255,255,255)"/></g><g><path d=" M 1139.901 876.862 C 1143.528 876.862 1143.528 871.238 1139.901 871.238 C 1136.275 871.238 1136.275 876.862 1139.901 876.862 L 1139.901 876.862 Z " fill="rgb(255,255,255)"/></g><g><path d=" M 1139.901 876.862 C 1143.528 876.862 1143.528 871.238 1139.901 871.238 C 1136.275 871.238 1136.275 876.862 1139.901 876.862 L 1139.901 876.862 Z " fill="rgb(255,255,255)"/></g><g><path d=" M 1710.72 897 C 1714.346 897 1714.346 891.376 1710.72 891.376 C 1707.093 891.376 1707.093 897 1710.72 897 L 1710.72 897 Z " fill="rgb(255,255,255)"/></g></g><g><path d=" M 1326.72 810 C 1330.346 810 1330.346 804.376 1326.72 804.376 C 1323.093 804.376 1323.093 810 1326.72 810 L 1326.72 810 Z " fill="rgb(255,255,255)"/></g><g><path d=" M 1595.72 961 C 1599.346 961 1599.346 955.376 1595.72 955.376 C 1592.093 955.376 1592.093 961 1595.72 961 L 1595.72 961 Z " fill="rgb(255,255,255)"/></g></g></svg>