<svg xmlns="http://www.w3.org/2000/svg" xmlns:xlink="http://www.w3.org/1999/xlink" style="isolation:isolate" viewBox="0 0 600 600" id="el_VfnC_W3DI"><style>@-webkit-keyframes el_ruEdK4egjQa_QqUVYWz2f_Animation{0%{-webkit-transform: translate(39.573001861572266px, 378.7430114746094px) translate(-39.573001861572266px, -378.7430114746094px) translate(0px, 0px);transform: translate(39.573001861572266px, 378.7430114746094px) translate(-39.573001861572266px, -378.7430114746094px) translate(0px, 0px);}25.56%{-webkit-transform: translate(39.573001861572266px, 378.7430114746094px) translate(-39.573001861572266px, -378.7430114746094px) translate(3px, 0px);transform: translate(39.573001861572266px, 378.7430114746094px) translate(-39.573001861572266px, -378.7430114746094px) translate(3px, 0px);}50%{-webkit-transform: translate(39.573001861572266px, 378.7430114746094px) translate(-39.573001861572266px, -378.7430114746094px) translate(0px, 0px);transform: translate(39.573001861572266px, 378.7430114746094px) translate(-39.573001861572266px, -378.7430114746094px) translate(0px, 0px);}75.56%{-webkit-transform: translate(39.573001861572266px, 378.7430114746094px) translate(-39.573001861572266px, -378.7430114746094px) translate(3px, 0px);transform: translate(39.573001861572266px, 378.7430114746094px) translate(-39.573001861572266px, -378.7430114746094px) translate(3px, 0px);}100%{-webkit-transform: translate(39.573001861572266px, 378.7430114746094px) translate(-39.573001861572266px, -378.7430114746094px) translate(0px, 0px);transform: translate(39.573001861572266px, 378.7430114746094px) translate(-39.573001861572266px, -378.7430114746094px) translate(0px, 0px);}}@keyframes el_ruEdK4egjQa_QqUVYWz2f_Animation{0%{-webkit-transform: translate(39.573001861572266px, 378.7430114746094px) translate(-39.573001861572266px, -378.7430114746094px) translate(0px, 0px);transform: translate(39.573001861572266px, 378.7430114746094px) translate(-39.573001861572266px, -378.7430114746094px) translate(0px, 0px);}25.56%{-webkit-transform: translate(39.573001861572266px, 378.7430114746094px) translate(-39.573001861572266px, -378.7430114746094px) translate(3px, 0px);transform: translate(39.573001861572266px, 378.7430114746094px) translate(-39.573001861572266px, -378.7430114746094px) translate(3px, 0px);}50%{-webkit-transform: translate(39.573001861572266px, 378.7430114746094px) translate(-39.573001861572266px, -378.7430114746094px) translate(0px, 0px);transform: translate(39.573001861572266px, 378.7430114746094px) translate(-39.573001861572266px, -378.7430114746094px) translate(0px, 0px);}75.56%{-webkit-transform: translate(39.573001861572266px, 378.7430114746094px) translate(-39.573001861572266px, -378.7430114746094px) translate(3px, 0px);transform: translate(39.573001861572266px, 378.7430114746094px) translate(-39.573001861572266px, -378.7430114746094px) translate(3px, 0px);}100%{-webkit-transform: translate(39.573001861572266px, 378.7430114746094px) translate(-39.573001861572266px, -378.7430114746094px) translate(0px, 0px);transform: translate(39.573001861572266px, 378.7430114746094px) translate(-39.573001861572266px, -378.7430114746094px) translate(0px, 0px);}}@-webkit-keyframes el_tGwQ0pF6sp0_UZa-PkXK__Animation{0%{-webkit-transform: translate(147.60499572753906px, 184.6510009765625px) translate(-147.60499572753906px, -184.6510009765625px) translate(0px, 0px);transform: translate(147.60499572753906px, 184.6510009765625px) translate(-147.60499572753906px, -184.6510009765625px) translate(0px, 0px);}27.78%{-webkit-transform: translate(147.60499572753906px, 184.6510009765625px) translate(-147.60499572753906px, -184.6510009765625px) translate(-5px, 0px);transform: translate(147.60499572753906px, 184.6510009765625px) translate(-147.60499572753906px, -184.6510009765625px) translate(-5px, 0px);}50%{-webkit-transform: translate(147.60499572753906px, 184.6510009765625px) translate(-147.60499572753906px, -184.6510009765625px) translate(0px, 0px);transform: translate(147.60499572753906px, 184.6510009765625px) translate(-147.60499572753906px, -184.6510009765625px) translate(0px, 0px);}72.22%{-webkit-transform: translate(147.60499572753906px, 184.6510009765625px) translate(-147.60499572753906px, -184.6510009765625px) translate(5px, 0px);transform: translate(147.60499572753906px, 184.6510009765625px) translate(-147.60499572753906px, -184.6510009765625px) translate(5px, 0px);}100%{-webkit-transform: translate(147.60499572753906px, 184.6510009765625px) translate(-147.60499572753906px, -184.6510009765625px) translate(0px, 0px);transform: translate(147.60499572753906px, 184.6510009765625px) translate(-147.60499572753906px, -184.6510009765625px) translate(0px, 0px);}}@keyframes el_tGwQ0pF6sp0_UZa-PkXK__Animation{0%{-webkit-transform: translate(147.60499572753906px, 184.6510009765625px) translate(-147.60499572753906px, -184.6510009765625px) translate(0px, 0px);transform: translate(147.60499572753906px, 184.6510009765625px) translate(-147.60499572753906px, -184.6510009765625px) translate(0px, 0px);}27.78%{-webkit-transform: translate(147.60499572753906px, 184.6510009765625px) translate(-147.60499572753906px, -184.6510009765625px) translate(-5px, 0px);transform: translate(147.60499572753906px, 184.6510009765625px) translate(-147.60499572753906px, -184.6510009765625px) translate(-5px, 0px);}50%{-webkit-transform: translate(147.60499572753906px, 184.6510009765625px) translate(-147.60499572753906px, -184.6510009765625px) translate(0px, 0px);transform: translate(147.60499572753906px, 184.6510009765625px) translate(-147.60499572753906px, -184.6510009765625px) translate(0px, 0px);}72.22%{-webkit-transform: translate(147.60499572753906px, 184.6510009765625px) translate(-147.60499572753906px, -184.6510009765625px) translate(5px, 0px);transform: translate(147.60499572753906px, 184.6510009765625px) translate(-147.60499572753906px, -184.6510009765625px) translate(5px, 0px);}100%{-webkit-transform: translate(147.60499572753906px, 184.6510009765625px) translate(-147.60499572753906px, -184.6510009765625px) translate(0px, 0px);transform: translate(147.60499572753906px, 184.6510009765625px) translate(-147.60499572753906px, -184.6510009765625px) translate(0px, 0px);}}@-webkit-keyframes el_jpeEhjCJm8-_D01o9C4z1_Animation{0%{-webkit-transform: translate(439.2340087890625px, 208.468994140625px) translate(-439.2340087890625px, -208.468994140625px) translate(0px, 0px);transform: translate(439.2340087890625px, 208.468994140625px) translate(-439.2340087890625px, -208.468994140625px) translate(0px, 0px);}30%{-webkit-transform: translate(439.2340087890625px, 208.468994140625px) translate(-439.2340087890625px, -208.468994140625px) translate(5px, 0px);transform: translate(439.2340087890625px, 208.468994140625px) translate(-439.2340087890625px, -208.468994140625px) translate(5px, 0px);}50%{-webkit-transform: translate(439.2340087890625px, 208.468994140625px) translate(-439.2340087890625px, -208.468994140625px) translate(0px, 0px);transform: translate(439.2340087890625px, 208.468994140625px) translate(-439.2340087890625px, -208.468994140625px) translate(0px, 0px);}68.89%{-webkit-transform: translate(439.2340087890625px, 208.468994140625px) translate(-439.2340087890625px, -208.468994140625px) translate(-5px, 0px);transform: translate(439.2340087890625px, 208.468994140625px) translate(-439.2340087890625px, -208.468994140625px) translate(-5px, 0px);}100%{-webkit-transform: translate(439.2340087890625px, 208.468994140625px) translate(-439.2340087890625px, -208.468994140625px) translate(0px, 0px);transform: translate(439.2340087890625px, 208.468994140625px) translate(-439.2340087890625px, -208.468994140625px) translate(0px, 0px);}}@keyframes el_jpeEhjCJm8-_D01o9C4z1_Animation{0%{-webkit-transform: translate(439.2340087890625px, 208.468994140625px) translate(-439.2340087890625px, -208.468994140625px) translate(0px, 0px);transform: translate(439.2340087890625px, 208.468994140625px) translate(-439.2340087890625px, -208.468994140625px) translate(0px, 0px);}30%{-webkit-transform: translate(439.2340087890625px, 208.468994140625px) translate(-439.2340087890625px, -208.468994140625px) translate(5px, 0px);transform: translate(439.2340087890625px, 208.468994140625px) translate(-439.2340087890625px, -208.468994140625px) translate(5px, 0px);}50%{-webkit-transform: translate(439.2340087890625px, 208.468994140625px) translate(-439.2340087890625px, -208.468994140625px) translate(0px, 0px);transform: translate(439.2340087890625px, 208.468994140625px) translate(-439.2340087890625px, -208.468994140625px) translate(0px, 0px);}68.89%{-webkit-transform: translate(439.2340087890625px, 208.468994140625px) translate(-439.2340087890625px, -208.468994140625px) translate(-5px, 0px);transform: translate(439.2340087890625px, 208.468994140625px) translate(-439.2340087890625px, -208.468994140625px) translate(-5px, 0px);}100%{-webkit-transform: translate(439.2340087890625px, 208.468994140625px) translate(-439.2340087890625px, -208.468994140625px) translate(0px, 0px);transform: translate(439.2340087890625px, 208.468994140625px) translate(-439.2340087890625px, -208.468994140625px) translate(0px, 0px);}}@-webkit-keyframes el_PVFe14D9kTL_Animation{18.89%{opacity: 1;}20%{opacity: 0;}53.33%{opacity: 0;}54.44%{opacity: 1;}73.33%{opacity: 1;}74.44%{opacity: 0;}76.67%{opacity: 0;}77.78%{opacity: 1;}0%{opacity: 1;}100%{opacity: 1;}}@keyframes el_PVFe14D9kTL_Animation{18.89%{opacity: 1;}20%{opacity: 0;}53.33%{opacity: 0;}54.44%{opacity: 1;}73.33%{opacity: 1;}74.44%{opacity: 0;}76.67%{opacity: 0;}77.78%{opacity: 1;}0%{opacity: 1;}100%{opacity: 1;}}@-webkit-keyframes el_hpUc-AfazgJ_Animation{0%{opacity: 1;}4.44%{opacity: 1;}5.56%{opacity: 0;}11.11%{opacity: 0;}12.22%{opacity: 1;}18.89%{opacity: 1;}20%{opacity: 0;}53.33%{opacity: 0;}54.44%{opacity: 1;}73.33%{opacity: 1;}74.44%{opacity: 0;}76.67%{opacity: 0;}77.78%{opacity: 1;}100%{opacity: 1;}}@keyframes el_hpUc-AfazgJ_Animation{0%{opacity: 1;}4.44%{opacity: 1;}5.56%{opacity: 0;}11.11%{opacity: 0;}12.22%{opacity: 1;}18.89%{opacity: 1;}20%{opacity: 0;}53.33%{opacity: 0;}54.44%{opacity: 1;}73.33%{opacity: 1;}74.44%{opacity: 0;}76.67%{opacity: 0;}77.78%{opacity: 1;}100%{opacity: 1;}}@-webkit-keyframes el__WZW8azD8cz_Animation{0%{opacity: 0;}18.89%{opacity: 0;}20%{opacity: 1;}53.33%{opacity: 1;}54.44%{opacity: 0;}73.33%{opacity: 0;}74.44%{opacity: 1;}76.67%{opacity: 1;}77.78%{opacity: 0;}100%{opacity: 0;}}@keyframes el__WZW8azD8cz_Animation{0%{opacity: 0;}18.89%{opacity: 0;}20%{opacity: 1;}53.33%{opacity: 1;}54.44%{opacity: 0;}73.33%{opacity: 0;}74.44%{opacity: 1;}76.67%{opacity: 1;}77.78%{opacity: 0;}100%{opacity: 0;}}@-webkit-keyframes el_n-SADtjYAIl_Animation{0%{opacity: 0;}4.44%{opacity: 0;}5.56%{opacity: 1;}11.11%{opacity: 1;}12.22%{opacity: 0;}18.89%{opacity: 0;}20%{opacity: 1;}53.33%{opacity: 1;}54.44%{opacity: 0;}73.33%{opacity: 0;}74.44%{opacity: 1;}76.67%{opacity: 1;}77.78%{opacity: 0;}100%{opacity: 0;}}@keyframes el_n-SADtjYAIl_Animation{0%{opacity: 0;}4.44%{opacity: 0;}5.56%{opacity: 1;}11.11%{opacity: 1;}12.22%{opacity: 0;}18.89%{opacity: 0;}20%{opacity: 1;}53.33%{opacity: 1;}54.44%{opacity: 0;}73.33%{opacity: 0;}74.44%{opacity: 1;}76.67%{opacity: 1;}77.78%{opacity: 0;}100%{opacity: 0;}}@-webkit-keyframes el_GUU6YPL_EPx_Animation{0%{opacity: 0;}16.67%{opacity: 0;}18.89%{opacity: 1;}50%{opacity: 1;}52.22%{opacity: 0;}100%{opacity: 0;}}@keyframes el_GUU6YPL_EPx_Animation{0%{opacity: 0;}16.67%{opacity: 0;}18.89%{opacity: 1;}50%{opacity: 1;}52.22%{opacity: 0;}100%{opacity: 0;}}@-webkit-keyframes el_-_6z7GlG4f_xfOE0Sb_Q_Animation{0%{-webkit-transform: translate(399.86468505859375px, 347.29022216796875px) rotate(30deg) translate(-399.86468505859375px, -347.29022216796875px);transform: translate(399.86468505859375px, 347.29022216796875px) rotate(30deg) translate(-399.86468505859375px, -347.29022216796875px);}16.67%{-webkit-transform: translate(399.86468505859375px, 347.29022216796875px) rotate(0deg) translate(-399.86468505859375px, -347.29022216796875px);transform: translate(399.86468505859375px, 347.29022216796875px) rotate(0deg) translate(-399.86468505859375px, -347.29022216796875px);}25.56%{-webkit-transform: translate(399.86468505859375px, 347.29022216796875px) rotate(-5deg) translate(-399.86468505859375px, -347.29022216796875px);transform: translate(399.86468505859375px, 347.29022216796875px) rotate(-5deg) translate(-399.86468505859375px, -347.29022216796875px);}36.67%{-webkit-transform: translate(399.86468505859375px, 347.29022216796875px) rotate(8deg) translate(-399.86468505859375px, -347.29022216796875px);transform: translate(399.86468505859375px, 347.29022216796875px) rotate(8deg) translate(-399.86468505859375px, -347.29022216796875px);}44.44%{-webkit-transform: translate(399.86468505859375px, 347.29022216796875px) rotate(6deg) translate(-399.86468505859375px, -347.29022216796875px);transform: translate(399.86468505859375px, 347.29022216796875px) rotate(6deg) translate(-399.86468505859375px, -347.29022216796875px);}57.78%{-webkit-transform: translate(399.86468505859375px, 347.29022216796875px) rotate(-4deg) translate(-399.86468505859375px, -347.29022216796875px);transform: translate(399.86468505859375px, 347.29022216796875px) rotate(-4deg) translate(-399.86468505859375px, -347.29022216796875px);}67.78%{-webkit-transform: translate(399.86468505859375px, 347.29022216796875px) rotate(0deg) translate(-399.86468505859375px, -347.29022216796875px);transform: translate(399.86468505859375px, 347.29022216796875px) rotate(0deg) translate(-399.86468505859375px, -347.29022216796875px);}78.89%{-webkit-transform: translate(399.86468505859375px, 347.29022216796875px) rotate(0deg) translate(-399.86468505859375px, -347.29022216796875px);transform: translate(399.86468505859375px, 347.29022216796875px) rotate(0deg) translate(-399.86468505859375px, -347.29022216796875px);}100%{-webkit-transform: translate(399.86468505859375px, 347.29022216796875px) rotate(30deg) translate(-399.86468505859375px, -347.29022216796875px);transform: translate(399.86468505859375px, 347.29022216796875px) rotate(30deg) translate(-399.86468505859375px, -347.29022216796875px);}}@keyframes el_-_6z7GlG4f_xfOE0Sb_Q_Animation{0%{-webkit-transform: translate(399.86468505859375px, 347.29022216796875px) rotate(30deg) translate(-399.86468505859375px, -347.29022216796875px);transform: translate(399.86468505859375px, 347.29022216796875px) rotate(30deg) translate(-399.86468505859375px, -347.29022216796875px);}16.67%{-webkit-transform: translate(399.86468505859375px, 347.29022216796875px) rotate(0deg) translate(-399.86468505859375px, -347.29022216796875px);transform: translate(399.86468505859375px, 347.29022216796875px) rotate(0deg) translate(-399.86468505859375px, -347.29022216796875px);}25.56%{-webkit-transform: translate(399.86468505859375px, 347.29022216796875px) rotate(-5deg) translate(-399.86468505859375px, -347.29022216796875px);transform: translate(399.86468505859375px, 347.29022216796875px) rotate(-5deg) translate(-399.86468505859375px, -347.29022216796875px);}36.67%{-webkit-transform: translate(399.86468505859375px, 347.29022216796875px) rotate(8deg) translate(-399.86468505859375px, -347.29022216796875px);transform: translate(399.86468505859375px, 347.29022216796875px) rotate(8deg) translate(-399.86468505859375px, -347.29022216796875px);}44.44%{-webkit-transform: translate(399.86468505859375px, 347.29022216796875px) rotate(6deg) translate(-399.86468505859375px, -347.29022216796875px);transform: translate(399.86468505859375px, 347.29022216796875px) rotate(6deg) translate(-399.86468505859375px, -347.29022216796875px);}57.78%{-webkit-transform: translate(399.86468505859375px, 347.29022216796875px) rotate(-4deg) translate(-399.86468505859375px, -347.29022216796875px);transform: translate(399.86468505859375px, 347.29022216796875px) rotate(-4deg) translate(-399.86468505859375px, -347.29022216796875px);}67.78%{-webkit-transform: translate(399.86468505859375px, 347.29022216796875px) rotate(0deg) translate(-399.86468505859375px, -347.29022216796875px);transform: translate(399.86468505859375px, 347.29022216796875px) rotate(0deg) translate(-399.86468505859375px, -347.29022216796875px);}78.89%{-webkit-transform: translate(399.86468505859375px, 347.29022216796875px) rotate(0deg) translate(-399.86468505859375px, -347.29022216796875px);transform: translate(399.86468505859375px, 347.29022216796875px) rotate(0deg) translate(-399.86468505859375px, -347.29022216796875px);}100%{-webkit-transform: translate(399.86468505859375px, 347.29022216796875px) rotate(30deg) translate(-399.86468505859375px, -347.29022216796875px);transform: translate(399.86468505859375px, 347.29022216796875px) rotate(30deg) translate(-399.86468505859375px, -347.29022216796875px);}}@-webkit-keyframes el_8rEpUvVMoT_P0rDxDHyR_Animation{0%{-webkit-transform: translate(208.44956970214844px, 347.2902297973633px) rotate(-33deg) translate(-208.44956970214844px, -347.2902297973633px);transform: translate(208.44956970214844px, 347.2902297973633px) rotate(-33deg) translate(-208.44956970214844px, -347.2902297973633px);}16.67%{-webkit-transform: translate(208.44956970214844px, 347.2902297973633px) rotate(0deg) translate(-208.44956970214844px, -347.2902297973633px);transform: translate(208.44956970214844px, 347.2902297973633px) rotate(0deg) translate(-208.44956970214844px, -347.2902297973633px);}24.44%{-webkit-transform: translate(208.44956970214844px, 347.2902297973633px) rotate(-10deg) translate(-208.44956970214844px, -347.2902297973633px);transform: translate(208.44956970214844px, 347.2902297973633px) rotate(-10deg) translate(-208.44956970214844px, -347.2902297973633px);}33.33%{-webkit-transform: translate(208.44956970214844px, 347.2902297973633px) rotate(5deg) translate(-208.44956970214844px, -347.2902297973633px);transform: translate(208.44956970214844px, 347.2902297973633px) rotate(5deg) translate(-208.44956970214844px, -347.2902297973633px);}45.56%{-webkit-transform: translate(208.44956970214844px, 347.2902297973633px) rotate(-5deg) translate(-208.44956970214844px, -347.2902297973633px);transform: translate(208.44956970214844px, 347.2902297973633px) rotate(-5deg) translate(-208.44956970214844px, -347.2902297973633px);}55.56%{-webkit-transform: translate(208.44956970214844px, 347.2902297973633px) rotate(0deg) translate(-208.44956970214844px, -347.2902297973633px);transform: translate(208.44956970214844px, 347.2902297973633px) rotate(0deg) translate(-208.44956970214844px, -347.2902297973633px);}64.44%{-webkit-transform: translate(208.44956970214844px, 347.2902297973633px) rotate(5deg) translate(-208.44956970214844px, -347.2902297973633px);transform: translate(208.44956970214844px, 347.2902297973633px) rotate(5deg) translate(-208.44956970214844px, -347.2902297973633px);}73.33%{-webkit-transform: translate(208.44956970214844px, 347.2902297973633px) rotate(-10deg) translate(-208.44956970214844px, -347.2902297973633px);transform: translate(208.44956970214844px, 347.2902297973633px) rotate(-10deg) translate(-208.44956970214844px, -347.2902297973633px);}82.22%{-webkit-transform: translate(208.44956970214844px, 347.2902297973633px) rotate(0deg) translate(-208.44956970214844px, -347.2902297973633px);transform: translate(208.44956970214844px, 347.2902297973633px) rotate(0deg) translate(-208.44956970214844px, -347.2902297973633px);}100%{-webkit-transform: translate(208.44956970214844px, 347.2902297973633px) rotate(-33deg) translate(-208.44956970214844px, -347.2902297973633px);transform: translate(208.44956970214844px, 347.2902297973633px) rotate(-33deg) translate(-208.44956970214844px, -347.2902297973633px);}}@keyframes el_8rEpUvVMoT_P0rDxDHyR_Animation{0%{-webkit-transform: translate(208.44956970214844px, 347.2902297973633px) rotate(-33deg) translate(-208.44956970214844px, -347.2902297973633px);transform: translate(208.44956970214844px, 347.2902297973633px) rotate(-33deg) translate(-208.44956970214844px, -347.2902297973633px);}16.67%{-webkit-transform: translate(208.44956970214844px, 347.2902297973633px) rotate(0deg) translate(-208.44956970214844px, -347.2902297973633px);transform: translate(208.44956970214844px, 347.2902297973633px) rotate(0deg) translate(-208.44956970214844px, -347.2902297973633px);}24.44%{-webkit-transform: translate(208.44956970214844px, 347.2902297973633px) rotate(-10deg) translate(-208.44956970214844px, -347.2902297973633px);transform: translate(208.44956970214844px, 347.2902297973633px) rotate(-10deg) translate(-208.44956970214844px, -347.2902297973633px);}33.33%{-webkit-transform: translate(208.44956970214844px, 347.2902297973633px) rotate(5deg) translate(-208.44956970214844px, -347.2902297973633px);transform: translate(208.44956970214844px, 347.2902297973633px) rotate(5deg) translate(-208.44956970214844px, -347.2902297973633px);}45.56%{-webkit-transform: translate(208.44956970214844px, 347.2902297973633px) rotate(-5deg) translate(-208.44956970214844px, -347.2902297973633px);transform: translate(208.44956970214844px, 347.2902297973633px) rotate(-5deg) translate(-208.44956970214844px, -347.2902297973633px);}55.56%{-webkit-transform: translate(208.44956970214844px, 347.2902297973633px) rotate(0deg) translate(-208.44956970214844px, -347.2902297973633px);transform: translate(208.44956970214844px, 347.2902297973633px) rotate(0deg) translate(-208.44956970214844px, -347.2902297973633px);}64.44%{-webkit-transform: translate(208.44956970214844px, 347.2902297973633px) rotate(5deg) translate(-208.44956970214844px, -347.2902297973633px);transform: translate(208.44956970214844px, 347.2902297973633px) rotate(5deg) translate(-208.44956970214844px, -347.2902297973633px);}73.33%{-webkit-transform: translate(208.44956970214844px, 347.2902297973633px) rotate(-10deg) translate(-208.44956970214844px, -347.2902297973633px);transform: translate(208.44956970214844px, 347.2902297973633px) rotate(-10deg) translate(-208.44956970214844px, -347.2902297973633px);}82.22%{-webkit-transform: translate(208.44956970214844px, 347.2902297973633px) rotate(0deg) translate(-208.44956970214844px, -347.2902297973633px);transform: translate(208.44956970214844px, 347.2902297973633px) rotate(0deg) translate(-208.44956970214844px, -347.2902297973633px);}100%{-webkit-transform: translate(208.44956970214844px, 347.2902297973633px) rotate(-33deg) translate(-208.44956970214844px, -347.2902297973633px);transform: translate(208.44956970214844px, 347.2902297973633px) rotate(-33deg) translate(-208.44956970214844px, -347.2902297973633px);}}#el_VfnC_W3DI *{-webkit-animation-duration: 3s;animation-duration: 3s;-webkit-animation-iteration-count: infinite;animation-iteration-count: infinite;-webkit-animation-timing-function: cubic-bezier(0, 0, 1, 1);animation-timing-function: cubic-bezier(0, 0, 1, 1);}#el_n2-YfmHxT6{fill: rgb(0,158,255);}#el_ctNfESlKWm{fill: rgb(74,204,102);}#el_vbZcuKWfrP{fill: rgb(74,204,102);}#el_JgyidO3Ezm{fill: rgb(74,204,102);}#el_l3q06isO0V{fill: rgb(74,204,102);}#el_ae6MetFy03{fill: rgb(74,204,102);}#el_9u8VPqVS9J{fill: rgb(74,204,102);}#el_fcMSs2jxaa{fill: rgb(74,204,102);}#el_N5OBXPIZ1Lw{fill: rgb(74,204,102);}#el_-gpQMVSo6Kn{fill: rgb(255,255,255);}#el_n-SADtjYAIl{fill: rgb(25,25,38);-webkit-animation-name: el_n-SADtjYAIl_Animation;animation-name: el_n-SADtjYAIl_Animation;}#el_hpUc-AfazgJ{fill: rgb(0,0,0);-webkit-animation-name: el_hpUc-AfazgJ_Animation;animation-name: el_hpUc-AfazgJ_Animation;}#el_aY_4oYr8D7b{fill: rgb(139,25,38);}#el_WT8PPARK7MB{fill: rgb(255,255,255);}#el__WZW8azD8cz{fill: rgb(25,25,38);-webkit-animation-name: el__WZW8azD8cz_Animation;animation-name: el__WZW8azD8cz_Animation;}#el_PVFe14D9kTL{fill: rgb(0,0,0);-webkit-animation-name: el_PVFe14D9kTL_Animation;animation-name: el_PVFe14D9kTL_Animation;}#el_ruEdK4egjQa{fill: rgb(255,255,255);}#el_jpeEhjCJm8-{fill: rgb(255,255,255);}#el_tGwQ0pF6sp0{fill: rgb(255,255,255);}#el_GUU6YPL_EPx{fill: rgb(152,0,0);-webkit-animation-name: el_GUU6YPL_EPx_Animation;animation-name: el_GUU6YPL_EPx_Animation;}#el_8rEpUvVMoT_P0rDxDHyR{-webkit-animation-name: el_8rEpUvVMoT_P0rDxDHyR_Animation;animation-name: el_8rEpUvVMoT_P0rDxDHyR_Animation;}#el_-_6z7GlG4f_xfOE0Sb_Q{-webkit-animation-name: el_-_6z7GlG4f_xfOE0Sb_Q_Animation;animation-name: el_-_6z7GlG4f_xfOE0Sb_Q_Animation;}#el_jpeEhjCJm8-_D01o9C4z1{-webkit-animation-name: el_jpeEhjCJm8-_D01o9C4z1_Animation;animation-name: el_jpeEhjCJm8-_D01o9C4z1_Animation;}#el_tGwQ0pF6sp0_UZa-PkXK_{-webkit-animation-name: el_tGwQ0pF6sp0_UZa-PkXK__Animation;animation-name: el_tGwQ0pF6sp0_UZa-PkXK__Animation;}#el_ruEdK4egjQa_QqUVYWz2f{-webkit-animation-name: el_ruEdK4egjQa_QqUVYWz2f_Animation;animation-name: el_ruEdK4egjQa_QqUVYWz2f_Animation;}</style><defs><clipPath id="_clipPath_to1oKI9QKgjB5fk4VYu1C9S1g8KmRlqm"><rect width="600" height="600"/></clipPath></defs><g clip-path="url(#_clipPath_to1oKI9QKgjB5fk4VYu1C9S1g8KmRlqm)" id="el_h0NgGvSjVd"><g id="el_4P9GzDm_PA"><path d=" M 473.779 318.443 C 473.779 337.244 470.672 355.316 464.945 372.181 L 464.945 372.184 C 442.573 438.082 380.186 485.499 306.723 485.499 C 301.034 485.499 295.413 485.214 289.871 484.66 C 205.521 476.209 139.667 405.017 139.667 318.443 C 139.667 286.342 148.723 256.352 164.416 230.896 C 169.913 221.98 176.223 213.624 183.243 205.922 C 200.839 186.623 222.901 171.463 247.795 162.077 C 265.217 155.509 284.028 151.768 303.663 151.416 C 304.682 151.395 305.701 151.387 306.723 151.387 C 398.986 151.387 473.779 226.18 473.779 318.443 Z " id="el_n2-YfmHxT6"/><g id="el_907xBZTH8b"><path d=" M 473.779 318.443 C 473.779 337.244 470.672 355.316 464.945 372.181 C 463.48 370.776 462.197 369.2 461.141 367.508 C 456.389 359.585 456.389 344.536 444.505 342.952 C 438.961 342.952 433.417 345.328 429.456 347.704 C 424.701 349.288 420.741 351.664 416.781 350.08 C 411.236 346.912 407.276 340.575 403.316 336.615 C 400.145 331.86 395.393 325.524 389.849 324.732 C 384.304 323.94 380.344 328.692 376.384 331.86 C 371.629 335.823 366.876 339.783 361.332 338.991 C 355.788 338.991 351.828 335.823 347.073 335.031 C 342.32 334.239 342.32 338.199 343.112 342.159 C 344.696 346.912 347.865 350.08 349.451 354.832 C 350.243 359.585 345.488 361.963 341.528 363.547 C 338.36 364.34 330.44 366.716 327.271 363.547 C 324.895 360.377 330.44 354.832 331.232 351.664 C 333.608 347.704 335.984 343.744 332.024 339.783 C 328.064 336.615 320.933 334.239 316.18 335.031 C 309.844 335.031 306.676 338.991 304.299 344.536 C 302.715 347.704 301.131 354.04 296.379 354.04 C 294 354.04 291.624 352.456 289.248 350.872 C 286.08 348.496 283.703 346.12 280.535 343.744 C 278.159 341.368 274.991 338.991 272.615 336.615 C 271.031 335.031 269.444 333.444 269.444 331.068 C 270.239 327.108 279.743 324.732 282.912 323.148 C 286.872 321.563 294.792 319.187 295.585 313.643 C 296.379 308.89 292.416 303.344 290.832 299.383 C 289.248 294.631 288.456 290.671 288.456 285.918 C 288.456 282.75 286.872 280.371 284.496 277.995 C 279.744 272.451 275.783 266.115 272.615 258.986 C 271.031 255.818 267.068 246.311 272.615 245.519 C 278.16 243.934 286.08 249.479 290.04 252.647 C 294.792 255.818 299.547 260.57 301.923 266.906 C 302.716 270.867 302.716 276.411 305.884 279.579 C 309.052 281.958 314.596 279.579 317.764 277.995 C 322.519 274.827 327.272 272.451 332.024 269.283 C 331.232 269.283 330.44 269.283 330.44 269.283 C 335.192 266.115 341.529 265.322 347.865 263.738 C 351.828 262.946 357.372 262.154 361.332 259.778 C 364.5 257.402 365.292 253.439 367.668 250.271 C 370.044 246.31 374.797 243.142 375.592 237.598 C 376.384 234.43 374.797 230.469 373.213 227.299 C 372.421 224.13 371.629 217.002 368.46 214.626 C 366.084 213.042 362.916 217.002 362.916 219.378 C 362.124 222.546 362.124 224.923 360.54 228.091 C 357.372 236.806 351.827 244.726 343.904 248.687 C 337.568 251.855 329.647 249.479 323.311 246.311 C 320.14 245.519 313.804 243.935 313.012 239.182 C 313.012 236.014 314.596 233.638 317.764 232.846 C 320.932 232.054 323.311 232.054 326.479 229.678 C 328.855 228.091 332.816 225.715 334.4 222.547 C 335.984 220.963 334.4 217.795 335.192 215.419 C 335.984 212.25 335.984 210.666 334.4 207.498 C 333.479 205.191 333.36 203.421 334.207 202.033 C 332.475 203.274 330.817 204.444 328.855 205.914 C 325.687 208.29 323.311 210.666 318.556 211.459 C 316.18 211.459 309.844 211.459 308.26 208.29 C 306.676 205.122 310.636 201.952 312.22 200.367 C 315.388 197.199 318.556 192.447 320.14 188.487 C 320.933 182.942 316.18 176.606 313.804 172.643 C 309.918 165.982 306.81 158.542 303.663 151.416 C 304.682 151.395 305.701 151.387 306.723 151.387 C 398.986 151.387 473.779 226.18 473.779 318.443 Z " id="el_ctNfESlKWm"/></g><g id="el_UjFZ2K9raV"><path d=" M 376.562 348.852 C 365.249 351.869 352.428 354.886 347.903 366.953 C 344.132 375.249 343.378 388.824 350.165 395.612 C 356.199 400.891 365.249 397.874 372.037 400.137 C 381.087 402.399 386.366 410.695 390.891 418.237 C 396.925 425.779 403.713 434.83 412.763 438.6 C 417.288 440.109 408.991 449.54 412.763 447.277 C 416.534 445.015 431.617 431.813 431.617 427.288 C 433.126 418.992 430.109 409.941 430.863 400.891 C 431.617 392.595 432.372 384.299 427.092 376.757 C 421.059 366.953 409.746 363.182 400.696 357.902 C 393.154 353.377 386.366 350.361 377.316 348.098" id="el_vbZcuKWfrP"/></g><g id="el_oUWWY12sYc"><path d=" M 255.979 224.924 C 254.395 231.262 252.811 237.599 249.643 243.143 C 248.059 247.103 245.683 251.064 244.099 255.819 C 243.307 258.987 243.307 265.323 240.928 267.699 C 236.968 270.868 231.423 266.116 228.255 264.531 C 222.711 259.779 217.166 255.027 210.035 251.856 C 206.867 249.48 202.115 248.688 198.155 247.103 C 194.194 244.727 191.818 239.975 190.232 236.015 C 187.856 229.679 186.271 222.547 184.687 215.419 C 184.323 212.137 183.79 209.025 183.243 205.922 C 200.839 186.623 222.901 171.463 247.795 162.077 C 252.172 170.066 255.976 178.341 258.355 186.903 C 262.316 199.576 258.355 213.043 255.979 224.924 Z " id="el_JgyidO3Ezm"/></g><g id="el_8rEpUvVMoT_P0rDxDHyR" data-animator-group="true" data-animator-type="1"><g id="el_8rEpUvVMoT"><path d=" M 107.716 126.962 C 111.4 121.024 117.298 116.787 124.106 115.195 C 130.91 113.601 138.073 114.777 144.014 118.461 C 149.951 122.148 154.186 128.046 155.78 134.85 C 157.372 141.654 156.195 148.821 152.512 154.758 C 150.33 158.274 148.245 161.846 146.254 165.47 C 144.436 168.782 142.716 172.143 141.091 175.55 C 139.612 178.657 138.231 181.807 136.953 184.997 C 135.786 187.899 134.722 190.839 133.753 193.814 C 132.877 196.516 132.096 199.247 131.417 202.005 C 130.798 204.513 130.274 207.047 129.849 209.594 C 129.463 211.92 129.17 214.259 128.969 216.609 C 128.788 218.764 128.695 220.928 128.695 223.093 C 128.692 226.256 128.906 229.413 129.341 232.543 C 129.737 235.387 130.33 238.201 131.114 240.962 C 131.855 243.562 132.771 246.112 133.852 248.59 C 134.907 251.002 136.109 253.341 137.45 255.602 C 138.785 257.845 140.244 260.007 141.823 262.086 C 143.401 264.162 145.078 266.155 146.857 268.063 C 148.624 269.961 150.479 271.78 152.406 273.516 C 154.301 275.223 156.261 276.854 158.281 278.41 C 162.084 281.329 166.064 284.011 170.202 286.433 C 173.639 288.456 177.175 290.314 180.789 291.998 C 183.172 293.115 185.593 294.143 188.051 295.082 C 188.651 295.31 189.254 295.527 189.86 295.738 C 189.939 295.764 190.015 295.791 190.094 295.817 C 196.753 297.939 202.302 302.624 205.512 308.832 C 208.718 315.043 209.327 322.279 207.205 328.938 C 205.083 335.594 200.398 341.143 194.19 344.352 C 187.979 347.558 180.743 348.168 174.084 346.046 C 173.57 345.881 173.056 345.71 172.542 345.532 C 171.448 345.153 170.361 344.757 169.277 344.346 C 165.619 342.948 162.014 341.42 158.469 339.759 C 153.362 337.377 148.37 334.754 143.51 331.897 C 137.483 328.365 131.684 324.457 126.145 320.2 C 123.048 317.818 120.046 315.32 117.143 312.707 C 114.062 309.936 111.107 307.033 108.286 304.002 C 105.304 300.802 102.487 297.458 99.845 293.978 C 97.064 290.318 94.493 286.505 92.141 282.555 C 89.676 278.406 87.469 274.11 85.538 269.688 C 83.511 265.045 81.798 260.271 80.411 255.401 C 78.954 250.28 77.854 245.068 77.122 239.796 C 76.351 234.247 75.969 228.652 75.976 223.05 C 75.979 219.416 76.13 215.785 76.437 212.164 C 76.757 208.404 77.228 204.654 77.847 200.931 C 78.493 197.05 79.287 193.198 80.229 189.379 C 81.215 185.385 82.345 181.431 83.617 177.52 C 84.948 173.418 86.421 169.362 88.025 165.358 C 89.716 161.147 91.541 156.989 93.492 152.89 C 95.551 148.564 97.736 144.297 100.042 140.096 C 102.484 135.651 105.041 131.272 107.716 126.962 Z " id="el_l3q06isO0V"/><circle vector-effect="non-scaling-stroke" cx="142.2129930327318" cy="167.20326982252445" r="19.769938144770713" id="el_ae6MetFy03"/></g></g><g id="el_-_6z7GlG4f_xfOE0Sb_Q" data-animator-group="true" data-animator-type="1"><g id="el_-_6z7GlG4f"><path d=" M 455.802 154.758 C 452.118 148.821 450.942 141.654 452.537 134.85 C 454.128 128.046 458.366 122.148 464.303 118.461 C 470.241 114.777 477.408 113.601 484.212 115.195 C 491.016 116.787 496.914 121.024 500.601 126.962 C 503.273 131.272 505.833 135.651 508.272 140.096 C 510.578 144.297 512.763 148.564 514.825 152.89 C 516.776 156.989 518.598 161.147 520.289 165.358 C 521.896 169.362 523.366 173.418 524.701 177.52 C 525.969 181.431 527.099 185.385 528.084 189.379 C 529.027 193.198 529.821 197.05 530.467 200.931 C 531.089 204.654 531.557 208.404 531.877 212.164 C 532.183 215.785 532.338 219.416 532.338 223.05 C 532.345 228.652 531.963 234.247 531.195 239.796 C 530.46 245.068 529.363 250.28 527.907 255.401 C 526.516 260.271 524.803 265.045 522.776 269.688 C 520.845 274.11 518.641 278.406 516.173 282.555 C 513.824 286.505 511.25 290.318 508.473 293.978 C 505.827 297.458 503.01 300.802 500.031 304.002 C 497.207 307.033 494.252 309.936 491.171 312.707 C 488.268 315.32 485.266 317.818 482.172 320.2 C 476.633 324.457 470.831 328.365 464.804 331.897 C 459.947 334.754 454.955 337.377 449.848 339.759 C 446.303 341.42 442.698 342.948 439.037 344.346 C 437.957 344.757 436.866 345.153 435.772 345.532 C 435.261 345.71 434.747 345.881 434.23 346.046 C 427.571 348.168 420.335 347.558 414.127 344.352 C 407.916 341.143 403.231 335.594 401.109 328.938 C 398.987 322.279 399.596 315.043 402.806 308.832 C 406.012 302.624 411.56 297.939 418.22 295.817 C 418.299 295.791 418.378 295.764 418.457 295.738 C 419.063 295.527 419.666 295.31 420.266 295.082 C 422.724 294.143 425.142 293.115 427.525 291.998 C 431.143 290.314 434.675 288.456 438.115 286.433 C 442.25 284.011 446.23 281.329 450.033 278.41 C 452.053 276.854 454.013 275.223 455.908 273.516 C 457.839 271.78 459.69 269.961 461.46 268.063 C 463.236 266.155 464.916 264.162 466.491 262.086 C 468.07 260.007 469.529 257.845 470.864 255.602 C 472.208 253.341 473.411 251.002 474.462 248.59 C 475.543 246.112 476.459 243.562 477.2 240.962 C 477.987 238.201 478.577 235.387 478.976 232.543 C 479.408 229.413 479.625 226.256 479.618 223.093 C 479.618 220.928 479.526 218.764 479.345 216.609 C 479.147 214.259 478.854 211.92 478.465 209.594 C 478.04 207.047 477.52 204.513 476.9 202.005 C 476.218 199.247 475.437 196.516 474.561 193.814 C 473.595 190.839 472.528 187.899 471.365 184.997 C 470.083 181.807 468.702 178.657 467.223 175.55 C 465.602 172.143 463.878 168.782 462.063 165.47 C 460.073 161.846 457.984 158.274 455.802 154.758 Z " id="el_9u8VPqVS9J"/><circle vector-effect="non-scaling-stroke" cx="463.7117271429931" cy="167.20326982252445" r="19.76993814477072" id="el_fcMSs2jxaa"/></g></g><g id="el_gkJKPOPyY5m"><path d=" M 289.871 484.66 C 205.521 476.209 139.667 405.017 139.667 318.443 C 139.667 286.342 148.723 256.352 164.416 230.896 C 167.383 240.643 171.053 250.156 176.767 258.987 C 182.311 267.7 190.232 273.244 195.778 281.959 C 204.491 294.632 200.531 311.267 198.154 325.525 C 196.57 331.861 194.194 338.992 192.61 345.328 C 191.026 350.873 192.61 354.833 198.154 357.209 C 206.075 359.585 214.787 361.172 221.126 366.717 C 228.255 372.261 228.255 380.973 225.879 388.896 C 223.503 396.025 218.75 403.153 218.75 410.282 C 218.75 415.829 222.711 418.205 226.671 419.789 C 233.007 422.165 237.759 425.333 242.512 429.293 C 248.059 434.838 252.019 440.385 256.771 445.929 C 261.524 450.681 267.068 454.642 271.823 459.394 C 278.946 466.517 285.539 475.229 289.871 484.66 Z " id="el_N5OBXPIZ1Lw"/></g><g id="el_aizUi7R2YQC"><circle vector-effect="non-scaling-stroke" cx="177.81898113043286" cy="318.4432966300204" r="50.82290948773115" id="el_-gpQMVSo6Kn"/><path d=" M 200.533 327.811 C 200.536 324.777 199.93 321.772 198.75 318.974 C 197.607 316.276 195.953 313.824 193.88 311.755 C 191.811 309.679 189.36 308.025 186.661 306.885 C 183.863 305.702 180.855 305.096 177.817 305.099 C 174.782 305.096 171.774 305.702 168.977 306.885 C 166.278 308.025 163.827 309.679 161.757 311.755 C 159.682 313.824 158.031 316.276 156.887 318.974 C 155.708 321.772 155.102 324.777 155.102 327.811 C 155.105 329.558 154.41 331.235 153.177 332.47 C 151.942 333.709 150.264 334.405 148.518 334.405 C 146.772 334.408 145.095 333.713 143.856 332.48 C 142.62 331.245 141.925 329.568 141.922 327.821 C 141.918 323.02 142.88 318.266 144.745 313.844 C 146.551 309.58 149.161 305.705 152.436 302.433 C 155.708 299.158 159.583 296.548 163.846 294.743 C 168.268 292.878 173.02 291.916 177.817 291.919 C 182.618 291.916 187.369 292.878 191.791 294.743 C 196.055 296.548 199.93 299.158 203.202 302.433 C 206.474 305.705 209.087 309.58 210.892 313.844 C 212.757 318.266 213.719 323.02 213.713 327.821 C 213.713 329.568 213.018 331.245 211.779 332.48 C 210.543 333.713 208.866 334.408 207.12 334.405 C 205.373 334.405 203.696 333.709 202.46 332.47 C 201.225 331.235 200.533 329.558 200.533 327.811 Z " id="el_n-SADtjYAIl"/><path d=" M 199.438 308.145 C 195.427 300.308 187.72 295 178.88 295 C 165.91 295 155.38 306.426 155.38 320.5 C 155.38 334.574 165.91 346 178.88 346 C 191.85 346 202.38 334.574 202.38 320.5 C 202.38 317.821 201.998 315.237 201.291 312.81 L 186.502 315.768 L 199.438 308.145 Z " id="el_hpUc-AfazgJ"/></g><g id="el_1JbbyzjA-Aq"><path d=" M 250.469 353.181 C 256.067 353.181 260.605 357.719 260.605 363.317 C 260.605 388.747 281.294 409.435 306.724 409.435 C 332.153 409.435 352.842 388.747 352.842 363.317 C 352.842 357.719 357.38 353.181 362.978 353.181 C 368.576 353.181 373.114 357.719 373.114 363.317 C 373.114 399.924 343.331 429.707 306.724 429.707 C 270.116 429.707 240.334 399.924 240.334 363.317 C 240.333 357.719 244.871 353.181 250.469 353.181 Z " id="el_aY_4oYr8D7b"/></g><g id="el_rwdbdgjCq5_"><circle vector-effect="non-scaling-stroke" cx="436.422293024859" cy="318.4432966300204" r="50.82290948773118" id="el_WT8PPARK7MB"/><path d=" M 413.705 327.811 C 413.709 329.558 413.014 331.235 411.781 332.47 C 410.546 333.709 408.868 334.405 407.122 334.405 C 405.376 334.408 403.699 333.713 402.46 332.48 C 401.224 331.245 400.529 329.568 400.526 327.821 C 400.522 323.02 401.481 318.266 403.349 313.844 C 405.155 309.58 407.765 305.705 411.04 302.433 C 414.312 299.158 418.187 296.548 422.45 294.743 C 426.872 292.878 431.624 291.916 436.421 291.919 C 441.222 291.916 445.973 292.878 450.395 294.743 C 454.659 296.548 458.534 299.158 461.806 302.433 C 465.078 305.705 467.691 309.58 469.496 313.844 C 471.361 318.266 472.323 323.02 472.317 327.821 C 472.317 329.568 471.622 331.245 470.383 332.48 C 469.147 333.713 467.47 334.408 465.723 334.405 C 463.974 334.405 462.3 333.709 461.064 332.47 C 459.829 331.235 459.137 329.558 459.137 327.811 C 459.14 324.777 458.534 321.772 457.354 318.974 C 456.211 316.276 454.557 313.824 452.484 311.755 C 450.415 309.679 447.96 308.025 445.265 306.885 C 442.464 305.702 439.459 305.096 436.421 305.099 C 433.386 305.096 430.378 305.702 427.581 306.885 C 424.882 308.025 422.431 309.679 420.361 311.755 C 418.286 313.824 416.631 316.276 415.488 318.974 C 414.312 321.772 413.705 324.777 413.705 327.811 Z " id="el__WZW8azD8cz"/><path d=" M 457.438 305.145 C 453.427 297.308 445.72 292 436.88 292 C 423.91 292 413.38 303.426 413.38 317.5 C 413.38 331.574 423.91 343 436.88 343 C 449.85 343 460.38 331.574 460.38 317.5 C 460.38 314.821 459.998 312.237 459.291 309.81 L 444.502 312.768 L 457.438 305.145 Z " id="el_PVFe14D9kTL"/></g><g id="el_s_huz2_56Pa"><g id="el_ruEdK4egjQa_QqUVYWz2f" data-animator-group="true" data-animator-type="0"><path d=" M 239.762 435.415 C 236.257 423.944 225.588 415.599 212.969 415.599 C 209.712 415.599 206.586 416.157 203.679 417.179 C 203.695 416.732 203.706 416.283 203.706 415.832 C 203.706 395.348 187.1 378.743 166.616 378.743 C 153.331 378.743 141.679 385.729 135.128 396.227 C 128.213 389.556 118.805 385.451 108.437 385.451 C 89.927 385.451 74.474 398.531 70.812 415.952 C 69.364 415.721 67.879 415.6 66.367 415.6 C 53.748 415.6 43.079 423.944 39.573 435.415 L 239.762 435.415 L 239.762 435.415 Z " id="el_ruEdK4egjQa"/></g><g id="el_jpeEhjCJm8-_D01o9C4z1" data-animator-group="true" data-animator-type="0"><path d=" M 567.38 244.746 C 565.136 237.403 558.307 232.062 550.229 232.062 C 548.144 232.062 546.143 232.419 544.282 233.073 C 544.292 232.787 544.299 232.5 544.299 232.211 C 544.299 219.099 533.67 208.469 520.557 208.469 C 512.053 208.469 504.594 212.942 500.401 219.662 C 495.974 215.391 489.952 212.763 483.315 212.763 C 471.467 212.763 461.575 221.136 459.231 232.288 C 458.304 232.14 457.354 232.062 456.385 232.062 C 448.308 232.062 441.479 237.403 439.234 244.746 L 567.38 244.746 L 567.38 244.746 Z " id="el_jpeEhjCJm8-"/></g><g id="el_tGwQ0pF6sp0_UZa-PkXK_" data-animator-group="true" data-animator-type="0"><path d=" M 275.751 220.928 C 273.506 213.585 266.677 208.244 258.6 208.244 C 256.515 208.244 254.514 208.601 252.652 209.255 C 252.663 208.969 252.67 208.682 252.67 208.393 C 252.67 195.281 242.04 184.651 228.928 184.651 C 220.423 184.651 212.965 189.123 208.771 195.843 C 204.345 191.573 198.322 188.945 191.686 188.945 C 179.837 188.945 169.945 197.318 167.601 208.469 C 166.674 208.322 165.724 208.244 164.756 208.244 C 156.678 208.244 149.849 213.585 147.605 220.928 L 275.751 220.928 Z " id="el_tGwQ0pF6sp0"/></g></g></g><g id="el_ammLJntl9Ad"><path d=" M 247.141 353.475 C 247.124 353.474 247.106 353.474 247.089 353.474 C 241.491 353.474 236.953 358.012 236.953 363.61 C 236.953 400.218 266.736 430 303.344 430 C 339.235 430 368.566 401.371 369.697 365.75 C 369.896 364.953 370 364.128 370 363.293 C 370 360.643 368.95 358.093 367.07 356.223 C 365.2 354.343 362.65 353.293 360 353.293 L 249 353.293 C 248.371 353.293 247.748 353.352 247.141 353.475 Z  M 258.248 373.293 C 262.709 394.09 281.234 409.728 303.344 409.728 C 325.453 409.728 343.978 394.09 348.439 373.293 L 258.248 373.293 Z " fill-rule="evenodd" id="el_GUU6YPL_EPx"/></g></g></svg>