<?xml version="1.0" standalone="no"?><!-- Generator: Gravit.io --><svg xmlns="http://www.w3.org/2000/svg" xmlns:xlink="http://www.w3.org/1999/xlink" style="isolation:isolate" viewBox="0 0 1800 1200" width="1800" height="1200"><defs><clipPath id="_clipPath_ET1IIaNzHLPubWWpcheVpU2eVksVRpQ1"><rect width="1800" height="1200"/></clipPath></defs><g clip-path="url(#_clipPath_ET1IIaNzHLPubWWpcheVpU2eVksVRpQ1)"><g><path d=" M 1344.308 642.949 C 1344.308 700.007 1334.878 754.854 1317.499 806.038 L 1317.499 806.046 C 1249.599 1006.042 1060.26 1149.949 837.308 1149.949 C 820.041 1149.949 802.983 1149.084 786.164 1147.401 C 530.168 1121.753 330.309 905.692 330.309 642.949 C 330.309 545.523 357.791 454.508 405.418 377.25 C 422.1 350.191 441.251 324.831 462.556 301.458 C 515.96 242.886 582.915 196.877 658.465 168.392 C 711.341 148.457 768.431 137.103 828.02 136.037 C 831.113 135.973 834.207 135.949 837.307 135.949 C 1117.318 135.949 1344.308 362.939 1344.308 642.949 Z " fill="rgb(0,158,255)"/><g><path d=" M 1344.308 642.949 C 1344.308 700.007 1334.878 754.854 1317.499 806.038 C 1313.051 801.775 1309.157 796.992 1305.952 791.856 C 1291.53 767.81 1291.53 722.138 1255.464 717.33 C 1238.638 717.33 1221.811 724.541 1209.792 731.753 C 1195.362 736.561 1183.342 743.772 1171.323 738.964 C 1154.497 729.349 1142.478 710.118 1130.458 698.099 C 1120.836 683.668 1106.412 664.438 1089.587 662.034 C 1072.759 659.63 1060.74 674.053 1048.722 683.668 C 1034.29 695.695 1019.868 707.714 1003.041 705.31 C 986.214 705.31 974.197 695.695 959.765 693.291 C 945.342 690.887 945.342 702.906 947.747 714.925 C 952.553 729.348 962.17 738.963 966.984 753.386 C 969.389 767.809 954.957 775.028 942.938 779.836 C 933.323 782.24 909.285 789.451 899.671 779.836 C 892.459 770.213 909.285 753.386 911.69 743.771 C 918.9 731.752 926.113 719.733 914.093 707.714 C 902.074 698.099 880.432 690.887 866.009 693.291 C 846.78 693.291 837.165 705.31 829.952 722.137 C 825.145 731.752 820.337 750.982 805.915 750.982 C 798.696 750.982 791.483 746.174 784.272 741.367 C 774.657 734.156 767.446 726.944 757.831 719.733 C 750.619 712.522 741.004 705.31 733.792 698.099 C 728.984 693.291 724.17 688.476 724.17 681.264 C 726.582 669.245 755.426 662.034 765.042 657.226 C 777.061 652.418 801.099 645.207 803.504 628.38 C 805.915 613.957 793.889 597.123 789.081 585.104 C 784.272 570.681 781.869 558.662 781.869 544.239 C 781.869 534.624 777.061 527.404 769.85 520.193 C 755.427 503.366 743.409 484.136 733.794 462.502 C 728.985 452.887 716.958 424.033 733.794 421.629 C 750.62 416.821 774.657 433.648 786.676 443.263 C 801.099 452.886 815.53 467.309 822.742 486.539 C 825.145 498.558 825.145 515.385 834.76 525 C 844.375 532.219 861.202 525 870.817 520.193 C 885.249 510.578 899.671 503.366 914.093 493.751 C 911.69 493.751 909.286 493.751 909.286 493.751 C 923.709 484.136 942.94 481.732 962.17 476.924 C 974.197 474.52 991.024 472.116 1003.041 464.905 C 1012.656 457.694 1015.061 445.667 1022.271 436.051 C 1029.483 424.032 1043.905 414.417 1046.317 397.59 C 1048.722 387.975 1043.905 375.956 1039.098 366.333 C 1036.695 356.718 1034.291 335.084 1024.676 327.872 C 1017.464 323.065 1007.848 335.083 1007.848 342.295 C 1005.445 351.91 1005.445 359.122 1000.638 368.737 C 991.022 395.187 974.196 419.225 950.15 431.244 C 930.92 440.859 906.881 433.648 887.65 424.033 C 878.027 421.629 858.796 416.822 856.394 402.399 C 856.394 392.784 861.201 385.572 870.816 383.169 C 880.431 380.765 887.651 380.765 897.266 373.554 C 904.478 368.738 916.497 361.527 921.305 351.912 C 926.113 347.104 921.305 337.489 923.708 330.278 C 926.113 320.663 926.113 315.855 921.305 306.24 C 918.509 299.237 918.147 293.868 920.719 289.654 C 915.463 293.42 910.431 296.97 904.478 301.433 C 894.863 308.644 887.65 315.856 873.221 318.26 C 866.009 318.26 846.779 318.26 841.972 308.645 C 837.165 299.03 849.182 289.407 853.99 284.599 C 863.605 274.984 873.221 260.561 878.029 248.542 C 880.432 231.715 866.009 212.485 858.798 200.458 C 847.004 180.242 837.572 157.662 828.021 136.036 C 831.114 135.972 834.207 135.948 837.308 135.948 C 1117.318 135.949 1344.308 362.939 1344.308 642.949 Z " fill="rgb(74,204,102)"/></g><g><path d=" M 1049.262 735.238 C 1014.928 744.393 976.018 753.549 962.284 790.171 C 950.84 815.349 948.551 856.549 969.151 877.149 C 987.462 893.171 1014.929 884.015 1035.529 890.882 C 1062.996 897.748 1079.018 922.926 1092.751 945.815 C 1111.062 968.704 1131.662 996.171 1159.129 1007.615 C 1172.862 1012.193 1147.683 1040.816 1159.129 1033.949 C 1170.573 1027.082 1216.351 987.016 1216.351 973.281 C 1220.929 948.104 1211.773 920.637 1214.062 893.171 C 1216.351 867.993 1218.64 842.815 1202.618 819.926 C 1184.307 790.171 1149.973 778.726 1122.507 762.704 C 1099.618 748.971 1079.018 739.816 1051.552 732.949" fill="rgb(74,204,102)"/></g><g><path d=" M 683.306 359.125 C 678.497 378.363 673.691 397.594 664.075 414.42 C 659.267 426.439 652.056 438.458 647.249 452.889 C 644.845 462.504 644.845 481.735 637.626 488.946 C 625.606 498.561 608.78 484.139 599.165 479.331 C 582.337 464.908 565.512 450.485 543.869 440.862 C 534.254 433.651 519.832 431.247 507.812 426.439 C 495.793 419.228 488.582 404.805 483.767 392.786 C 476.556 373.556 471.747 351.913 466.939 330.279 C 465.833 320.319 464.215 310.873 462.556 301.458 C 515.96 242.886 582.915 196.877 658.465 168.392 C 671.751 192.638 683.296 217.75 690.517 243.735 C 702.535 282.196 690.517 323.068 683.306 359.125 Z " fill="rgb(74,204,102)"/></g><path d=" M 459.059 650.5 C 459.059 650.5 43.569 520 301.314 104" fill="none" vector-effect="non-scaling-stroke" stroke-width="160" stroke="rgb(74,204,102)" stroke-linejoin="round" stroke-linecap="round" stroke-miterlimit="10"/><path d=" M 1199.984 650.5 C 1199.984 650.5 1615.474 520 1357.729 104" fill="none" vector-effect="non-scaling-stroke" stroke-width="160" stroke="rgb(74,204,102)" stroke-linejoin="round" stroke-linecap="round" stroke-miterlimit="10"/><g><path d=" M 786.164 1147.401 C 530.168 1121.753 330.309 905.692 330.309 642.949 C 330.309 545.523 357.791 454.508 405.418 377.25 C 414.424 406.833 425.562 435.702 442.902 462.505 C 459.728 488.947 483.767 505.773 500.6 532.223 C 527.043 570.684 515.023 621.171 507.811 664.44 C 503.004 683.67 495.793 705.313 490.984 724.543 C 486.176 741.37 490.984 753.389 507.811 760.6 C 531.85 767.811 558.291 772.627 577.53 789.454 C 599.163 806.281 599.163 832.722 591.952 856.768 C 584.741 878.402 570.319 900.036 570.319 921.67 C 570.319 938.505 582.337 945.716 594.356 950.524 C 613.587 957.735 628.009 967.351 642.432 979.369 C 659.267 996.196 671.286 1013.03 685.708 1029.857 C 700.132 1044.28 716.957 1056.299 731.389 1070.722 C 753.008 1092.338 773.015 1118.78 786.164 1147.401 Z " fill="rgb(74,204,102)"/></g><circle vector-effect="non-scaling-stroke" cx="446.09549096679666" cy="642.9489746093749" r="154.24299999999997" fill="rgb(255,255,255)"/><path d=" M 357.155 671.394 C 357.155 622.274 396.975 582.454 446.095 582.454 C 495.215 582.454 535.035 622.274 535.035 671.394" fill="none" vector-effect="non-scaling-stroke" stroke-width="40" stroke="rgb(25,25,38)" stroke-linejoin="round" stroke-linecap="round" stroke-miterlimit="10"/><g><path d=" M 666.582 748.374 C 683.572 748.374 697.345 762.146 697.345 779.136 C 697.345 856.313 760.133 919.101 837.31 919.101 C 914.487 919.101 977.275 856.313 977.275 779.136 C 977.275 762.146 991.046 748.374 1008.035 748.374 C 1025.025 748.374 1038.797 762.146 1038.797 779.136 C 1038.797 890.236 948.41 980.624 837.31 980.624 C 726.209 980.624 635.822 890.237 635.822 779.136 C 635.82 762.146 649.592 748.374 666.582 748.374 Z " fill="rgb(139,25,38)"/></g><circle vector-effect="non-scaling-stroke" cx="1230.9334909667966" cy="642.9489746093749" r="154.24299999999994" fill="rgb(255,255,255)"/><path d=" M 1141.993 671.394 C 1141.993 622.274 1181.813 582.454 1230.933 582.454 C 1280.053 582.454 1319.874 622.274 1319.874 671.394" fill="none" vector-effect="non-scaling-stroke" stroke-width="40" stroke="rgb(25,25,38)" stroke-linejoin="round" stroke-linecap="round" stroke-miterlimit="10"/><circle vector-effect="non-scaling-stroke" cx="338.03449096679685" cy="183.948974609375" r="60" fill="rgb(74,204,102)"/><circle vector-effect="non-scaling-stroke" cx="1313.7544909667968" cy="183.948974609375" r="60" fill="rgb(74,204,102)"/><g><path d=" M 634.087 997.947 C 623.449 963.133 591.069 937.809 552.772 937.809 C 542.889 937.809 533.402 939.501 524.577 942.603 C 524.626 941.246 524.66 939.885 524.66 938.516 C 524.66 876.349 474.262 825.952 412.095 825.952 C 371.775 825.952 336.413 847.156 316.533 879.017 C 295.546 858.769 266.993 846.311 235.527 846.311 C 179.352 846.311 132.452 886.008 121.337 938.879 C 116.943 938.178 112.438 937.81 107.848 937.81 C 69.55 937.81 37.171 963.133 26.533 997.948 L 634.087 997.948 L 634.087 997.947 Z " fill="rgb(255,255,255)"/><path d=" M 1773.467 385.335 C 1766.656 363.05 1745.93 346.84 1721.415 346.84 C 1715.088 346.84 1709.015 347.923 1703.368 349.909 C 1703.399 349.04 1703.42 348.169 1703.42 347.293 C 1703.42 307.498 1671.16 275.238 1631.364 275.238 C 1605.555 275.238 1582.919 288.811 1570.192 309.206 C 1556.758 296.245 1538.48 288.27 1518.338 288.27 C 1482.379 288.27 1452.358 313.681 1445.243 347.525 C 1442.431 347.077 1439.547 346.84 1436.608 346.84 C 1412.093 346.84 1391.368 363.05 1384.556 385.335 L 1773.467 385.335 L 1773.467 385.335 Z " fill="rgb(255,255,255)"/><path d=" M 743.31 346.998 C 736.499 324.713 715.772 308.503 691.257 308.503 C 684.931 308.503 678.858 309.586 673.208 311.572 C 673.239 310.703 673.26 309.832 673.26 308.956 C 673.26 269.161 641.001 236.901 601.205 236.901 C 575.395 236.901 552.759 250.474 540.033 270.869 C 526.598 257.908 508.322 249.933 488.179 249.933 C 452.22 249.933 422.199 275.344 415.085 309.188 C 412.272 308.74 409.389 308.503 406.449 308.503 C 381.934 308.503 361.208 324.713 354.397 346.998 L 743.31 346.998 Z " fill="rgb(255,255,255)"/></g></g></g></svg>