<svg xmlns="http://www.w3.org/2000/svg" xmlns:xlink="http://www.w3.org/1999/xlink" style="isolation:isolate" viewBox="0 0 600 600" id="el_OBDOyK_Kv"><style>@-webkit-keyframes el_rfirYK3iybL_Animation{0%{opacity: 0;}23.33%{opacity: 0;}27.78%{opacity: 1;}32.22%{opacity: 0;}38.89%{opacity: 0;}43.33%{opacity: 1;}47.78%{opacity: 0;}55.56%{opacity: 0;}60%{opacity: 1;}64.44%{opacity: 0;}100%{opacity: 0;}}@keyframes el_rfirYK3iybL_Animation{0%{opacity: 0;}23.33%{opacity: 0;}27.78%{opacity: 1;}32.22%{opacity: 0;}38.89%{opacity: 0;}43.33%{opacity: 1;}47.78%{opacity: 0;}55.56%{opacity: 0;}60%{opacity: 1;}64.44%{opacity: 0;}100%{opacity: 0;}}@-webkit-keyframes el_Sv0CQhHOx1r_Animation{0%{opacity: 0;}23.33%{opacity: 0;}27.78%{opacity: 1;}32.22%{opacity: 0;}38.89%{opacity: 0;}43.33%{opacity: 1;}47.78%{opacity: 0;}55.56%{opacity: 0;}60%{opacity: 1;}64.44%{opacity: 0;}100%{opacity: 0;}}@keyframes el_Sv0CQhHOx1r_Animation{0%{opacity: 0;}23.33%{opacity: 0;}27.78%{opacity: 1;}32.22%{opacity: 0;}38.89%{opacity: 0;}43.33%{opacity: 1;}47.78%{opacity: 0;}55.56%{opacity: 0;}60%{opacity: 1;}64.44%{opacity: 0;}100%{opacity: 0;}}@-webkit-keyframes el_1H-nxvN2030_aVmhS8H_R_Animation{0%{-webkit-transform: translate(158.18519592285156px, 313.29052734375px) rotate(0deg) translate(-158.18519592285156px, -313.29052734375px);transform: translate(158.18519592285156px, 313.29052734375px) rotate(0deg) translate(-158.18519592285156px, -313.29052734375px);}16.67%{-webkit-transform: translate(158.18519592285156px, 313.29052734375px) rotate(0deg) translate(-158.18519592285156px, -313.29052734375px);transform: translate(158.18519592285156px, 313.29052734375px) rotate(0deg) translate(-158.18519592285156px, -313.29052734375px);}25.56%{-webkit-transform: translate(158.18519592285156px, 313.29052734375px) rotate(-5deg) translate(-158.18519592285156px, -313.29052734375px);transform: translate(158.18519592285156px, 313.29052734375px) rotate(-5deg) translate(-158.18519592285156px, -313.29052734375px);}33.33%{-webkit-transform: translate(158.18519592285156px, 313.29052734375px) rotate(0deg) translate(-158.18519592285156px, -313.29052734375px);transform: translate(158.18519592285156px, 313.29052734375px) rotate(0deg) translate(-158.18519592285156px, -313.29052734375px);}41.11%{-webkit-transform: translate(158.18519592285156px, 313.29052734375px) rotate(-5deg) translate(-158.18519592285156px, -313.29052734375px);transform: translate(158.18519592285156px, 313.29052734375px) rotate(-5deg) translate(-158.18519592285156px, -313.29052734375px);}50%{-webkit-transform: translate(158.18519592285156px, 313.29052734375px) rotate(0deg) translate(-158.18519592285156px, -313.29052734375px);transform: translate(158.18519592285156px, 313.29052734375px) rotate(0deg) translate(-158.18519592285156px, -313.29052734375px);}57.78%{-webkit-transform: translate(158.18519592285156px, 313.29052734375px) rotate(-5deg) translate(-158.18519592285156px, -313.29052734375px);transform: translate(158.18519592285156px, 313.29052734375px) rotate(-5deg) translate(-158.18519592285156px, -313.29052734375px);}66.67%{-webkit-transform: translate(158.18519592285156px, 313.29052734375px) rotate(0deg) translate(-158.18519592285156px, -313.29052734375px);transform: translate(158.18519592285156px, 313.29052734375px) rotate(0deg) translate(-158.18519592285156px, -313.29052734375px);}100%{-webkit-transform: translate(158.18519592285156px, 313.29052734375px) rotate(0deg) translate(-158.18519592285156px, -313.29052734375px);transform: translate(158.18519592285156px, 313.29052734375px) rotate(0deg) translate(-158.18519592285156px, -313.29052734375px);}}@keyframes el_1H-nxvN2030_aVmhS8H_R_Animation{0%{-webkit-transform: translate(158.18519592285156px, 313.29052734375px) rotate(0deg) translate(-158.18519592285156px, -313.29052734375px);transform: translate(158.18519592285156px, 313.29052734375px) rotate(0deg) translate(-158.18519592285156px, -313.29052734375px);}16.67%{-webkit-transform: translate(158.18519592285156px, 313.29052734375px) rotate(0deg) translate(-158.18519592285156px, -313.29052734375px);transform: translate(158.18519592285156px, 313.29052734375px) rotate(0deg) translate(-158.18519592285156px, -313.29052734375px);}25.56%{-webkit-transform: translate(158.18519592285156px, 313.29052734375px) rotate(-5deg) translate(-158.18519592285156px, -313.29052734375px);transform: translate(158.18519592285156px, 313.29052734375px) rotate(-5deg) translate(-158.18519592285156px, -313.29052734375px);}33.33%{-webkit-transform: translate(158.18519592285156px, 313.29052734375px) rotate(0deg) translate(-158.18519592285156px, -313.29052734375px);transform: translate(158.18519592285156px, 313.29052734375px) rotate(0deg) translate(-158.18519592285156px, -313.29052734375px);}41.11%{-webkit-transform: translate(158.18519592285156px, 313.29052734375px) rotate(-5deg) translate(-158.18519592285156px, -313.29052734375px);transform: translate(158.18519592285156px, 313.29052734375px) rotate(-5deg) translate(-158.18519592285156px, -313.29052734375px);}50%{-webkit-transform: translate(158.18519592285156px, 313.29052734375px) rotate(0deg) translate(-158.18519592285156px, -313.29052734375px);transform: translate(158.18519592285156px, 313.29052734375px) rotate(0deg) translate(-158.18519592285156px, -313.29052734375px);}57.78%{-webkit-transform: translate(158.18519592285156px, 313.29052734375px) rotate(-5deg) translate(-158.18519592285156px, -313.29052734375px);transform: translate(158.18519592285156px, 313.29052734375px) rotate(-5deg) translate(-158.18519592285156px, -313.29052734375px);}66.67%{-webkit-transform: translate(158.18519592285156px, 313.29052734375px) rotate(0deg) translate(-158.18519592285156px, -313.29052734375px);transform: translate(158.18519592285156px, 313.29052734375px) rotate(0deg) translate(-158.18519592285156px, -313.29052734375px);}100%{-webkit-transform: translate(158.18519592285156px, 313.29052734375px) rotate(0deg) translate(-158.18519592285156px, -313.29052734375px);transform: translate(158.18519592285156px, 313.29052734375px) rotate(0deg) translate(-158.18519592285156px, -313.29052734375px);}}@-webkit-keyframes el_iM4nfUXzPw_6O0KoDIBO_Animation{0%{-webkit-transform: translate(327.2143859863281px, 211.70899963378906px) rotate(0deg) translate(-327.2143859863281px, -211.70899963378906px);transform: translate(327.2143859863281px, 211.70899963378906px) rotate(0deg) translate(-327.2143859863281px, -211.70899963378906px);}16.67%{-webkit-transform: translate(327.2143859863281px, 211.70899963378906px) rotate(0deg) translate(-327.2143859863281px, -211.70899963378906px);transform: translate(327.2143859863281px, 211.70899963378906px) rotate(0deg) translate(-327.2143859863281px, -211.70899963378906px);}25.56%{-webkit-transform: translate(327.2143859863281px, 211.70899963378906px) rotate(8deg) translate(-327.2143859863281px, -211.70899963378906px);transform: translate(327.2143859863281px, 211.70899963378906px) rotate(8deg) translate(-327.2143859863281px, -211.70899963378906px);}33.33%{-webkit-transform: translate(327.2143859863281px, 211.70899963378906px) rotate(0deg) translate(-327.2143859863281px, -211.70899963378906px);transform: translate(327.2143859863281px, 211.70899963378906px) rotate(0deg) translate(-327.2143859863281px, -211.70899963378906px);}41.11%{-webkit-transform: translate(327.2143859863281px, 211.70899963378906px) rotate(8deg) translate(-327.2143859863281px, -211.70899963378906px);transform: translate(327.2143859863281px, 211.70899963378906px) rotate(8deg) translate(-327.2143859863281px, -211.70899963378906px);}50%{-webkit-transform: translate(327.2143859863281px, 211.70899963378906px) rotate(0deg) translate(-327.2143859863281px, -211.70899963378906px);transform: translate(327.2143859863281px, 211.70899963378906px) rotate(0deg) translate(-327.2143859863281px, -211.70899963378906px);}57.78%{-webkit-transform: translate(327.2143859863281px, 211.70899963378906px) rotate(8deg) translate(-327.2143859863281px, -211.70899963378906px);transform: translate(327.2143859863281px, 211.70899963378906px) rotate(8deg) translate(-327.2143859863281px, -211.70899963378906px);}66.67%{-webkit-transform: translate(327.2143859863281px, 211.70899963378906px) rotate(0deg) translate(-327.2143859863281px, -211.70899963378906px);transform: translate(327.2143859863281px, 211.70899963378906px) rotate(0deg) translate(-327.2143859863281px, -211.70899963378906px);}100%{-webkit-transform: translate(327.2143859863281px, 211.70899963378906px) rotate(0deg) translate(-327.2143859863281px, -211.70899963378906px);transform: translate(327.2143859863281px, 211.70899963378906px) rotate(0deg) translate(-327.2143859863281px, -211.70899963378906px);}}@keyframes el_iM4nfUXzPw_6O0KoDIBO_Animation{0%{-webkit-transform: translate(327.2143859863281px, 211.70899963378906px) rotate(0deg) translate(-327.2143859863281px, -211.70899963378906px);transform: translate(327.2143859863281px, 211.70899963378906px) rotate(0deg) translate(-327.2143859863281px, -211.70899963378906px);}16.67%{-webkit-transform: translate(327.2143859863281px, 211.70899963378906px) rotate(0deg) translate(-327.2143859863281px, -211.70899963378906px);transform: translate(327.2143859863281px, 211.70899963378906px) rotate(0deg) translate(-327.2143859863281px, -211.70899963378906px);}25.56%{-webkit-transform: translate(327.2143859863281px, 211.70899963378906px) rotate(8deg) translate(-327.2143859863281px, -211.70899963378906px);transform: translate(327.2143859863281px, 211.70899963378906px) rotate(8deg) translate(-327.2143859863281px, -211.70899963378906px);}33.33%{-webkit-transform: translate(327.2143859863281px, 211.70899963378906px) rotate(0deg) translate(-327.2143859863281px, -211.70899963378906px);transform: translate(327.2143859863281px, 211.70899963378906px) rotate(0deg) translate(-327.2143859863281px, -211.70899963378906px);}41.11%{-webkit-transform: translate(327.2143859863281px, 211.70899963378906px) rotate(8deg) translate(-327.2143859863281px, -211.70899963378906px);transform: translate(327.2143859863281px, 211.70899963378906px) rotate(8deg) translate(-327.2143859863281px, -211.70899963378906px);}50%{-webkit-transform: translate(327.2143859863281px, 211.70899963378906px) rotate(0deg) translate(-327.2143859863281px, -211.70899963378906px);transform: translate(327.2143859863281px, 211.70899963378906px) rotate(0deg) translate(-327.2143859863281px, -211.70899963378906px);}57.78%{-webkit-transform: translate(327.2143859863281px, 211.70899963378906px) rotate(8deg) translate(-327.2143859863281px, -211.70899963378906px);transform: translate(327.2143859863281px, 211.70899963378906px) rotate(8deg) translate(-327.2143859863281px, -211.70899963378906px);}66.67%{-webkit-transform: translate(327.2143859863281px, 211.70899963378906px) rotate(0deg) translate(-327.2143859863281px, -211.70899963378906px);transform: translate(327.2143859863281px, 211.70899963378906px) rotate(0deg) translate(-327.2143859863281px, -211.70899963378906px);}100%{-webkit-transform: translate(327.2143859863281px, 211.70899963378906px) rotate(0deg) translate(-327.2143859863281px, -211.70899963378906px);transform: translate(327.2143859863281px, 211.70899963378906px) rotate(0deg) translate(-327.2143859863281px, -211.70899963378906px);}}@-webkit-keyframes el_dTWpj6v-TK_Animation{0%{opacity: 0;}17.78%{opacity: 0;}18.89%{opacity: 1;}64.44%{opacity: 1;}66.67%{opacity: 0;}100%{opacity: 0;}}@keyframes el_dTWpj6v-TK_Animation{0%{opacity: 0;}17.78%{opacity: 0;}18.89%{opacity: 1;}64.44%{opacity: 1;}66.67%{opacity: 0;}100%{opacity: 0;}}@-webkit-keyframes el_oBCHEj56Bo_Animation{0%{opacity: 1;}16.67%{opacity: 1;}18.89%{opacity: 0;}65.56%{opacity: 0;}66.67%{opacity: 1;}100%{opacity: 1;}}@keyframes el_oBCHEj56Bo_Animation{0%{opacity: 1;}16.67%{opacity: 1;}18.89%{opacity: 0;}65.56%{opacity: 0;}66.67%{opacity: 1;}100%{opacity: 1;}}@-webkit-keyframes el_7eMZWnYjnfy_Animation{0%{opacity: 0;}17.78%{opacity: 0;}18.89%{opacity: 1;}64.44%{opacity: 1;}66.67%{opacity: 0;}100%{opacity: 0;}}@keyframes el_7eMZWnYjnfy_Animation{0%{opacity: 0;}17.78%{opacity: 0;}18.89%{opacity: 1;}64.44%{opacity: 1;}66.67%{opacity: 0;}100%{opacity: 0;}}@-webkit-keyframes el_sQR4BclDNQj_Animation{0%{opacity: 1;}16.67%{opacity: 1;}18.89%{opacity: 0;}65.56%{opacity: 0;}66.67%{opacity: 1;}100%{opacity: 1;}}@keyframes el_sQR4BclDNQj_Animation{0%{opacity: 1;}16.67%{opacity: 1;}18.89%{opacity: 0;}65.56%{opacity: 0;}66.67%{opacity: 1;}100%{opacity: 1;}}#el_OBDOyK_Kv *{-webkit-animation-duration: 3s;animation-duration: 3s;-webkit-animation-iteration-count: infinite;animation-iteration-count: infinite;-webkit-animation-timing-function: cubic-bezier(0, 0, 1, 1);animation-timing-function: cubic-bezier(0, 0, 1, 1);}#el_l6TXnGwUij{fill: rgb(214,64,31);}#el_LT7cb9Hku9{fill: rgb(214,64,31);}#el_cINMJq1QIG{fill: rgb(214,64,31);}#el_TESIVzMCOM{fill: rgb(255,255,255);}#el_dTWpj6v-TK{fill: rgb(0,0,0);-webkit-animation-name: el_dTWpj6v-TK_Animation;animation-name: el_dTWpj6v-TK_Animation;opacity: 0;}#el_oBCHEj56Bo{fill: rgb(25,25,38);-webkit-animation-name: el_oBCHEj56Bo_Animation;animation-name: el_oBCHEj56Bo_Animation;opacity: 1;}#el_2VTJat-yJkv{fill: rgb(139,25,38);}#el_LD3AdNt6hLL{fill: rgb(214,64,31);}#el_x30adEgOfdI{fill: rgb(214,64,31);}#el_Sv0CQhHOx1r{fill: none;stroke-width: 10;stroke: rgb(255,255,255);-webkit-animation-name: el_Sv0CQhHOx1r_Animation;animation-name: el_Sv0CQhHOx1r_Animation;opacity: 0;}#el_rfirYK3iybL{fill: none;stroke-width: 10;stroke: rgb(255,255,255);-webkit-animation-name: el_rfirYK3iybL_Animation;animation-name: el_rfirYK3iybL_Animation;opacity: 0;}#el_Ryh-Fc-rfNl{fill: rgb(139,25,38);}#el_Fq44Wf8lDVr{fill: rgb(139,25,38);}#el_bKtx8rtg6o7{fill: rgb(139,25,38);}#el_j6gfSouxJpV{fill: rgb(139,25,38);}#el_TFpmpLKhsT7{fill: rgb(139,25,38);}#el_myZGCFjqF4g{fill: rgb(139,25,38);}#el_lPoMbz7vCwt{fill: rgb(139,25,38);}#el_dfIBx_Sx43X{fill: rgb(139,25,38);}#el_JWv8OGzW7E5{fill: rgb(255,255,255);}#el_7eMZWnYjnfy{fill: rgb(0,0,0);-webkit-animation-name: el_7eMZWnYjnfy_Animation;animation-name: el_7eMZWnYjnfy_Animation;opacity: 0;}#el_sQR4BclDNQj{fill: rgb(25,25,38);-webkit-animation-name: el_sQR4BclDNQj_Animation;animation-name: el_sQR4BclDNQj_Animation;opacity: 1;}#el_iM4nfUXzPw_6O0KoDIBO{-webkit-animation-name: el_iM4nfUXzPw_6O0KoDIBO_Animation;animation-name: el_iM4nfUXzPw_6O0KoDIBO_Animation;-webkit-transform: translate(327.2143859863281px, 211.70899963378906px) rotate(0deg) translate(-327.2143859863281px, -211.70899963378906px);transform: translate(327.2143859863281px, 211.70899963378906px) rotate(0deg) translate(-327.2143859863281px, -211.70899963378906px);}#el_1H-nxvN2030_aVmhS8H_R{-webkit-animation-name: el_1H-nxvN2030_aVmhS8H_R_Animation;animation-name: el_1H-nxvN2030_aVmhS8H_R_Animation;-webkit-transform: translate(158.18519592285156px, 313.29052734375px) rotate(0deg) translate(-158.18519592285156px, -313.29052734375px);transform: translate(158.18519592285156px, 313.29052734375px) rotate(0deg) translate(-158.18519592285156px, -313.29052734375px);}#el_Sv0CQhHOx1r_KDwevXTez{-webkit-transform: translate(475.114990234375px, 363.76800537109375px) translate(-475.114990234375px, -363.76800537109375px) translate(0px, 0px);transform: translate(475.114990234375px, 363.76800537109375px) translate(-475.114990234375px, -363.76800537109375px) translate(0px, 0px);}#el_rfirYK3iybL_HhJJDy8K5{-webkit-transform: translate(359.24700927734375px, 518.4169921875px) translate(-359.24700927734375px, -518.4169921875px) translate(0px, 0px);transform: translate(359.24700927734375px, 518.4169921875px) translate(-359.24700927734375px, -518.4169921875px) translate(0px, 0px);}</style><defs><clipPath id="_clipPath_ZwolPQq4uaNuOBc0NbRuaxMAPYiozYR8"><rect width="600" height="600"/></clipPath></defs><g clip-path="url(#_clipPath_ZwolPQq4uaNuOBc0NbRuaxMAPYiozYR8)" id="el_VbrJcxYrvf"><g id="el_lVDkGqhsJ2"><g id="el_cj6BiLsSjA"><g id="el_iM4nfUXzPw_6O0KoDIBO" data-animator-group="true" data-animator-type="1"><g id="el_iM4nfUXzPw"><g id="el_0JO89LUxm6"><path d=" M 383.717 211.709 L 428.645 258.713 L 428.757 258.605 C 428.346 259.007 387.623 299.303 392.67 346.068 C 396.086 377.712 420.15 407.684 464.195 435.153 C 479.431 444.654 484.079 464.708 474.578 479.943 C 465.075 495.179 445.023 499.827 429.788 490.325 C 397.711 470.321 372.797 447.975 355.736 423.91 C 339.885 401.551 330.536 377.478 327.951 352.362 C 326.022 333.627 327.886 314.412 333.492 295.251 C 337.805 280.507 344.334 265.793 352.897 251.515 C 367.032 227.948 382.051 213.302 383.717 211.709 Z " id="el_l6TXnGwUij"/></g><g id="el_wUQvPAK1wb"><circle vector-effect="non-scaling-stroke" cx="448.6365138213885" cy="425.69431752687416" r="24.38334830122227" id="el_LT7cb9Hku9"/></g></g></g><g id="el_5PWXu48bI6"><path d=" M 496.561 224.266 C 496.561 254.908 489.872 283.986 477.877 310.116 C 474.298 317.919 470.243 325.459 465.744 332.699 C 459.111 343.399 451.527 353.448 443.098 362.722 C 435.252 371.37 426.679 379.342 417.481 386.544 C 387.621 409.947 351.134 425.277 311.306 429.269 C 304.467 429.951 297.534 430.308 290.52 430.308 C 223.622 430.308 164.171 398.42 126.534 349.025 C 120.008 340.465 114.138 331.38 109.001 321.837 C 103.632 311.876 99.064 301.413 95.372 290.55 L 95.372 290.544 C 91.28 278.486 88.27 265.934 86.468 252.987 C 85.154 243.602 84.478 234.015 84.478 224.266 C 84.478 216.088 84.953 208.022 85.886 200.094 C 87.7 184.52 91.255 169.477 96.354 155.166 C 101.066 141.907 107.104 129.28 114.306 117.429 C 125.376 99.207 139.198 82.838 155.186 68.903 C 168.239 57.522 182.737 47.76 198.374 39.932 C 226.1 26.04 257.4 18.225 290.52 18.225 C 291.777 18.225 293.035 18.237 294.293 18.262 C 318.509 18.694 341.711 23.312 363.199 31.409 C 383.135 38.924 401.593 49.442 418.025 62.414 C 426.91 69.422 435.196 77.143 442.811 85.491 C 447.391 90.516 451.728 95.772 455.795 101.228 C 458.066 104.263 460.244 107.36 462.34 110.52 C 463.604 112.422 464.83 114.343 466.032 116.29 C 473.71 128.742 480.098 142.07 485.01 156.099 C 492.494 177.436 496.561 200.375 496.561 224.266 Z " id="el_cINMJq1QIG"/></g><g id="el_X1VgNzYTp4"><circle vector-effect="non-scaling-stroke" cx="449.50394747028224" cy="224.2656457945991" r="62.68301220701497" id="el_TESIVzMCOM"/><path d=" M 478.12 249.999 C 479.784 250.86 481.04 252.341 481.611 254.118 C 482.182 255.895 482.027 257.834 481.174 259.499 C 480.313 261.163 478.832 262.418 477.055 262.989 C 475.278 263.561 473.339 263.406 471.674 262.552 L 408.655 230.189 L 471.061 189.709 C 472.626 188.693 474.538 188.341 476.364 188.729 C 478.198 189.117 479.799 190.217 480.814 191.789 C 481.83 193.355 482.182 195.266 481.794 197.093 C 481.406 198.926 480.306 200.527 478.734 201.543 L 436.765 228.765 L 478.12 249.999 Z " id="el_dTWpj6v-TK"/></g><g id="el_NeCRJQBFIc"><path d=" M 413.359 243.954 C 417.848 243.954 421.487 240.315 421.487 235.826 C 421.487 220.378 434.056 207.809 449.504 207.809 C 464.952 207.809 477.521 220.378 477.521 235.826 C 477.521 240.315 481.16 243.954 485.648 243.954 C 490.137 243.954 493.776 240.315 493.776 235.826 C 493.776 211.414 473.916 191.554 449.504 191.554 C 425.092 191.554 405.232 211.413 405.232 235.826 C 405.232 240.315 408.871 243.954 413.359 243.954 Z " id="el_oBCHEj56Bo"/></g><g id="el_QSRJduh6lPB"><g id="el_RVXFbilaapH"><path d=" M 359.9 267.109 C 352.996 267.109 347.399 272.706 347.399 279.61 C 347.399 310.974 321.883 336.49 290.519 336.49 C 259.154 336.49 233.638 310.974 233.638 279.611 C 233.638 272.707 228.042 267.11 221.138 267.11 C 214.233 267.11 208.637 272.707 208.637 279.611 C 208.637 324.761 245.369 361.493 290.52 361.493 C 335.67 361.493 372.403 324.76 372.403 279.611 C 372.402 272.706 366.805 267.109 359.9 267.109 Z " id="el_2VTJat-yJkv"/></g></g><g id="el_1H-nxvN2030_aVmhS8H_R" data-animator-group="true" data-animator-type="1"><g id="el_1H-nxvN2030"><g id="el_s-BYzSfgdYY"><path d=" M 162.008 332.124 C 160.651 335.053 159.711 338.234 159.271 341.604 C 158.974 343.889 156.471 364.717 160.256 391.938 C 162.548 408.427 166.699 423.981 172.594 438.167 C 180.255 456.603 190.861 472.734 204.12 486.109 C 221.896 504.042 244.28 516.917 270.653 524.379 C 299.039 532.409 332.46 534.172 369.987 529.616 C 387.811 527.453 400.508 511.251 398.344 493.425 C 396.18 475.6 379.977 462.904 362.152 465.068 C 310.424 471.347 272.791 463.025 250.299 440.334 C 217.352 407.097 223.675 350.568 223.749 350.006 C 226.069 332.201 213.516 315.887 195.711 313.567 C 181.276 311.685 167.82 319.58 162.008 332.124 Z " id="el_LD3AdNt6hLL"/></g><g id="el_-nuz_021W70"><circle vector-effect="non-scaling-stroke" cx="342.86320618261703" cy="470.14218188068" r="24.38334830122227" id="el_x30adEgOfdI"/></g></g></g><g id="el_gESc0f_09BK"><path d=" M 475.115 388.202 L 487.845 363.768 L 490.896 388.202 L 530.093 388.202 L 499.041 409.582 L 532.129 425.287 L 500.058 429.897 L 520.526 456.923 L 494.968 449.675" vector-effect="non-scaling-stroke" stroke-linejoin="miter" stroke-linecap="butt" stroke-miterlimit="10" id="el_Sv0CQhHOx1r"/><path d=" M 417.311 518.417 L 443.821 525.918 L 420.516 533.869 L 428.48 572.248 L 401.237 546.187 L 392.582 581.775 L 381.552 551.311 L 359.247 576.841 L 361.153 550.344" vector-effect="non-scaling-stroke" stroke-linejoin="miter" stroke-linecap="butt" stroke-miterlimit="10" id="el_rfirYK3iybL"/></g><g id="el_Ed9u5MPwvWD"><path d=" M 320.023 211.545 L 86.467 252.987 C 85.154 243.601 84.477 234.015 84.477 224.266 C 84.477 216.087 84.953 208.021 85.885 200.093 L 320.023 211.545 Z " id="el_Ryh-Fc-rfNl"/><path d=" M 249.391 379.26 L 443.099 362.721 C 435.253 371.369 426.68 379.341 417.482 386.543 L 249.391 379.26 Z " id="el_Fq44Wf8lDVr"/><path d=" M 455.795 101.228 L 175.322 90.834 L 418.025 62.413 C 426.91 69.422 435.196 77.143 442.811 85.49 C 447.391 90.515 451.728 95.771 455.795 101.228 Z " id="el_bKtx8rtg6o7"/><path d=" M 408.001 314.302 L 477.877 310.116 C 474.298 317.919 470.243 325.459 465.744 332.699 L 408.001 314.302 Z " id="el_j6gfSouxJpV"/><path d=" M 290.52 149.616 L 462.34 110.52 C 463.604 112.422 464.83 114.343 466.032 116.289 C 473.71 128.741 480.098 142.07 485.01 156.098 L 290.52 149.616 Z " id="el_TFpmpLKhsT7"/><path d=" M 109 321.836 L 171.88 322.462 L 126.533 349.025 C 120.008 340.464 114.138 331.379 109 321.836 Z " id="el_myZGCFjqF4g"/><path d=" M 247.907 129.067 L 96.355 155.166 C 101.066 141.907 107.105 129.279 114.307 117.428 L 247.907 129.067 Z " id="el_lPoMbz7vCwt"/><path d=" M 300.626 39.93 L 155.186 68.902 C 168.239 57.52 182.737 47.758 198.374 39.93 L 300.626 39.93 Z " id="el_dfIBx_Sx43X"/></g><g id="el_Dberwzx73RM"><circle vector-effect="non-scaling-stroke" cx="130.5542366168998" cy="224.2656457945991" r="62.68301220701495" id="el_JWv8OGzW7E5"/><path d=" M 106.414 205.43 C 104.75 204.57 103.495 203.089 102.923 201.312 C 102.352 199.534 102.507 197.595 103.361 195.931 C 104.221 194.266 105.702 193.011 107.479 192.44 C 109.256 191.868 111.196 192.024 112.86 192.877 L 175.879 225.24 L 113.474 265.72 C 111.908 266.736 109.997 267.088 108.17 266.7 C 106.337 266.313 104.736 265.212 103.72 263.64 C 102.705 262.074 102.352 260.163 102.74 258.336 C 103.128 256.503 104.228 254.902 105.801 253.886 L 147.769 226.665 L 106.414 205.43 Z " id="el_7eMZWnYjnfy"/></g><g id="el_kTZTO9UBaoP"><path d=" M 94.41 243.954 C 98.899 243.954 102.538 240.315 102.538 235.826 C 102.538 220.378 115.105 207.809 130.554 207.809 C 146.002 207.809 158.57 220.378 158.57 235.826 C 158.57 240.315 162.209 243.954 166.698 243.954 C 171.187 243.954 174.826 240.315 174.826 235.826 C 174.826 211.414 154.966 191.554 130.554 191.554 C 106.142 191.554 86.282 211.413 86.282 235.826 C 86.282 240.315 89.921 243.954 94.41 243.954 Z " id="el_sQR4BclDNQj"/></g></g></g></g></svg>