<?xml version="1.0" standalone="no"?><!-- Generator: Gravit.io --><svg xmlns="http://www.w3.org/2000/svg" xmlns:xlink="http://www.w3.org/1999/xlink" style="isolation:isolate" viewBox="0 0 600 600" width="600" height="600"><defs><clipPath id="_clipPath_wZf5IobyWDiNKgObIkPsPgN5zNkVNVSx"><rect width="600" height="600"/></clipPath></defs><g clip-path="url(#_clipPath_wZf5IobyWDiNKgObIkPsPgN5zNkVNVSx)"><g><g><path d=" M 383.551 447.497 C 382.482 399.769 420.364 360.151 468.092 359.082 C 515.821 358.014 555.438 395.896 556.507 443.624 C 557.576 491.353 519.694 530.97 471.965 532.039 C 424.237 533.108 384.619 495.226 383.551 447.497 Z " fill="rgb(74,134,232)"/><path d=" M 566 551.864 C 567.922 553.702 569.028 556.218 569.088 558.867 C 569.147 561.526 568.154 564.089 566.317 566.011 C 564.489 567.922 561.963 569.029 559.314 569.088 C 556.665 569.148 554.102 568.155 552.18 566.327 L 477.564 494.98 C 475.653 493.142 474.536 490.627 474.477 487.967 C 474.417 485.318 475.42 482.755 477.248 480.833 C 479.085 478.922 481.601 477.805 484.25 477.746 C 486.9 477.687 489.473 478.689 491.384 480.517 L 566 551.864 Z " fill="rgb(74,134,232)"/><path d=" M 573.542 496.922 C 575.934 499.209 577.325 502.358 577.399 505.668 C 577.473 508.987 576.225 512.195 573.938 514.587 C 571.651 516.989 568.501 518.37 565.182 518.444 C 561.873 518.518 558.664 517.28 556.262 514.983 L 499.022 460.251 C 496.631 457.964 495.24 454.814 495.165 451.495 C 495.091 448.186 496.34 444.977 498.627 442.585 C 500.924 440.183 504.073 438.792 507.382 438.718 C 510.702 438.644 513.91 439.892 516.302 442.189 L 573.542 496.922 Z " fill="rgb(74,134,232)"/><path d=" M 405.176 430.509 C 404.545 402.368 426.88 379.01 455.021 378.38 C 483.162 377.75 506.52 400.085 507.15 428.225 C 507.78 456.366 485.445 479.724 457.305 480.354 C 429.164 480.984 405.806 458.649 405.176 430.509 Z " fill="rgb(0,255,255)"/><path d=" M 470.98 488.05 C 470.881 483.636 474.385 479.972 478.799 479.873 C 483.213 479.774 486.877 483.278 486.976 487.692 C 487.075 492.106 483.572 495.77 479.157 495.869 C 474.743 495.968 471.079 492.464 470.98 488.05 Z " fill="rgb(0,255,255)"/><path d=" M 483.971 451.446 L 503.137 469.771 C 504.568 471.149 505.4 473.041 505.445 475.021 C 505.489 477.01 504.742 478.937 503.374 480.378 C 501.996 481.81 500.104 482.642 498.114 482.687 C 496.125 482.731 494.208 481.984 492.767 480.616 L 473.602 462.29 C 472.16 460.912 471.328 459.02 471.283 457.031 C 471.239 455.051 471.986 453.124 473.364 451.683 C 474.742 450.252 476.624 449.41 478.614 449.365 C 480.603 449.32 482.53 450.077 483.971 451.446 Z " fill="rgb(0,255,255)"/><path d=" M 421.858 416.132 C 421.648 406.752 429.093 398.965 438.473 398.755 C 447.853 398.545 455.639 405.99 455.849 415.371 C 456.059 424.751 448.614 432.537 439.234 432.747 C 429.854 432.957 422.068 425.512 421.858 416.132 Z " fill="rgb(255,255,255)"/><path d=" M 425.562 423.516 L 446.004 443.063 C 446.965 443.982 447.513 445.24 447.543 446.56 C 447.573 447.89 447.081 449.171 446.163 450.132 C 445.244 451.092 443.986 451.641 442.656 451.671 C 441.336 451.7 440.045 451.209 439.094 450.29 L 418.652 430.743 C 417.691 429.824 417.132 428.566 417.103 427.236 C 417.073 425.917 417.575 424.635 418.493 423.674 C 419.402 422.714 420.67 422.155 421.99 422.126 C 423.319 422.096 424.601 422.597 425.562 423.516 Z " fill="rgb(255,255,255)"/><path d=" M 473.214 439.163 C 473.98 439.896 474.423 440.897 474.447 441.956 C 474.47 443.016 474.073 444.045 473.34 444.812 C 472.607 445.578 471.597 446.021 470.537 446.045 C 469.477 446.069 468.448 445.672 467.682 444.939 L 435.995 414.64 C 435.229 413.907 434.786 412.897 434.762 411.837 C 434.739 410.778 435.136 409.758 435.869 408.992 C 436.602 408.225 437.612 407.772 438.672 407.749 C 439.732 407.725 440.761 408.132 441.528 408.865 L 473.214 439.163 Z " fill="rgb(255,255,255)"/><path d=" M 449.041 399.985 L 469.483 419.532 C 470.444 420.451 470.992 421.709 471.022 423.028 C 471.052 424.358 470.56 425.639 469.642 426.6 C 468.723 427.561 467.465 428.109 466.135 428.139 C 464.816 428.169 463.524 427.677 462.573 426.758 L 442.131 407.211 C 441.17 406.292 440.612 405.035 440.582 403.705 C 440.552 402.385 441.054 401.104 441.972 400.143 C 442.881 399.182 444.149 398.624 445.469 398.594 C 446.798 398.564 448.08 399.066 449.041 399.985 Z " fill="rgb(255,255,255)"/><path d=" M 448.926 396.521 C 448.864 393.762 451.054 391.472 453.812 391.41 C 456.571 391.348 458.861 393.538 458.923 396.297 C 458.985 399.056 456.795 401.346 454.036 401.408 C 451.277 401.469 448.987 399.28 448.926 396.521 Z " fill="rgb(255,255,255)"/></g><g><g><path d=" M 113.936 238.427 C 113.936 238.427 162.602 317.716 170.598 353.026 C 180.177 395.333 176.786 468.876 232.215 519.403 L 318.045 426.011 L 113.936 238.427 Z " fill-rule="evenodd" fill="rgb(48,69,93)"/><path d=" M 210.935 495.165 L 294.432 404.31 L 269.86 381.728 L 194.133 464.127 C 198.49 474.741 203.955 485.185 210.935 495.165 Z " fill-rule="evenodd" fill="rgb(255,255,255)"/></g><g><path d=" M 234.846 106.866 C 234.846 106.866 317.95 148.68 353.81 153.672 C 396.772 159.654 469.768 150.08 524.784 201.058 L 438.953 294.45 L 234.846 106.866 Z " fill-rule="evenodd" fill="rgb(48,69,93)"/><path d=" M 498.841 181.894 L 415.342 272.749 L 390.77 250.165 L 466.497 167.766 C 477.44 171.213 488.308 175.778 498.841 181.894 Z " fill-rule="evenodd" fill="rgb(255,255,255)"/></g><path d=" M 481.408 364.53 L 389.838 464.166 C 386.298 468.02 379.455 466.902 376.035 461.913 L 353.947 429.698 C 351.595 426.268 351.653 422.043 354.086 419.393 L 434.202 332.222 C 436.671 329.534 440.958 329.153 444.599 331.297 L 478.14 351.046 C 483.302 354.085 484.909 360.719 481.408 364.53 Z " fill-rule="evenodd" fill="rgb(48,69,93)"/><path d=" M 444.598 331.295 C 440.957 329.153 436.671 329.533 434.201 332.222 L 394.741 375.158 L 436.43 413.471 L 481.408 364.53 C 484.909 360.719 483.302 354.085 478.14 351.046 L 444.598 331.295 Z " fill-rule="evenodd" fill="rgb(34,51,72)"/><path d=" M 215.342 90.142 C 159.511 47.074 77.415 22.257 46.89 55.471 C 16.367 88.683 48.013 168.396 95.63 220.402 C 96.655 222.047 97.826 223.622 99.319 224.993 L 321.835 429.495 C 330.768 437.705 344.794 437.113 353.004 428.179 L 444.06 329.102 C 452.27 320.169 451.678 306.143 442.744 297.933 L 220.228 93.433 C 218.735 92.06 217.068 91.025 215.342 90.142 Z " fill-rule="evenodd" fill="rgb(255,255,255)"/><path d=" M 444.06 329.102 C 452.27 320.169 451.678 306.143 442.744 297.933 L 220.228 93.433 C 218.735 92.061 217.069 91.026 215.342 90.142 C 159.511 47.075 77.415 22.258 46.89 55.472 L 398.532 378.641 L 444.06 329.102 Z " fill-rule="evenodd" fill="rgb(222,237,247)"/><g><rect x="168.657" y="81.02" width="6.618" height="178.69" transform="matrix(-0.736,-0.677,0.677,-0.736,183.295,412.167)" fill="rgb(48,69,93)"/><rect x="220.597" y="128.869" width="6.617" height="178.677" transform="matrix(-0.736,-0.677,0.677,-0.736,241.122,530.38)" fill="rgb(48,69,93)"/><rect x="272.57" y="176.633" width="6.618" height="178.677" transform="matrix(-0.736,-0.677,0.677,-0.736,299.046,648.481)" fill="rgb(48,69,93)"/><rect x="324.591" y="224.325" width="6.618" height="178.69" transform="matrix(-0.736,-0.677,0.677,-0.736,357.063,766.503)" fill="rgb(48,69,93)"/></g><g><rect x="198.847" y="92.885" width="6.618" height="89.339" transform="matrix(-0.736,-0.677,0.677,-0.736,257.932,375.625)" fill="rgb(34,51,72)"/><rect x="250.829" y="140.648" width="6.617" height="89.338" transform="matrix(-0.736,-0.677,0.677,-0.736,315.87,493.728)" fill="rgb(34,51,72)"/><rect x="302.791" y="188.414" width="6.618" height="89.338" transform="matrix(-0.736,-0.677,0.677,-0.736,373.773,611.826)" fill="rgb(34,51,72)"/><rect x="354.812" y="236.107" width="6.618" height="89.345" transform="matrix(-0.736,-0.677,0.677,-0.736,431.791,729.845)" fill="rgb(34,51,72)"/></g><g><path d=" M 73.54 80.262 C 55.807 99.558 64.431 139.024 78.074 171.101 L 111.575 172.286 C 106.068 152.595 102.63 129.295 113.739 117.207 C 124.975 104.98 148.762 106.481 169.123 110.528 L 165.495 77.498 C 131.984 66.187 91.461 60.761 73.54 80.262 Z " fill-rule="evenodd" fill="rgb(34,51,72)"/><path d=" M 73.702 80.11 L 113.9 117.054 C 125.197 105.005 148.854 106.5 169.122 110.529 L 165.496 77.499 C 132.078 66.219 91.7 60.805 73.702 80.11 Z " fill-rule="evenodd" fill="rgb(26,42,61)"/></g><g><path d=" M 412.609 391.576 C 409.325 395.149 403.714 395.387 400.141 392.104 L 298.899 299.058 C 295.326 295.774 295.089 290.164 298.373 286.59 C 301.656 283.017 307.267 282.78 310.84 286.064 L 412.083 379.109 C 415.656 382.394 415.892 388.004 412.609 391.576 Z " fill-rule="evenodd" fill="rgb(34,51,72)"/><path d=" M 412.081 379.109 L 310.839 286.064 C 307.265 282.78 301.655 283.017 298.371 286.59 L 412.608 391.577 C 415.892 388.004 415.655 382.394 412.081 379.109 Z " fill-rule="evenodd" fill="rgb(26,42,61)"/></g><g><g><path d=" M 215.044 151.565 L 156.808 214.931 C 149.747 222.617 137.681 223.126 129.996 216.063 C 122.311 208.999 121.802 196.934 128.865 189.25 L 187.1 125.882 C 194.162 118.199 206.229 117.69 213.913 124.752 C 221.598 131.814 222.107 143.88 215.044 151.565 Z " fill-rule="evenodd" fill="rgb(34,51,72)"/><path d=" M 187.101 125.882 L 157.982 157.567 L 185.926 183.248 L 215.044 151.564 C 222.107 143.879 221.597 131.813 213.913 124.752 C 206.229 117.69 194.163 118.199 187.101 125.882 Z " fill-rule="evenodd" fill="rgb(26,42,61)"/></g><g><path d=" M 151.676 208.898 C 147.051 213.286 139.734 213.094 135.346 208.469 C 130.958 203.845 131.149 196.528 135.773 192.14 C 140.397 187.752 147.714 187.944 152.102 192.568 C 156.491 197.193 156.3 204.51 151.676 208.898 Z " fill="rgb(199,217,231)"/><path d=" M 146.472 189.349 L 140.935 211.731 C 144.631 212.642 148.692 211.733 151.657 208.919 C 156.284 204.528 156.475 197.215 152.084 192.589 C 150.506 190.926 148.544 189.859 146.472 189.349 Z " fill-rule="evenodd" fill="rgb(175,203,218)"/><path d=" M 147.857 204.85 C 145.464 207.121 141.676 207.022 139.404 204.629 C 137.133 202.235 137.232 198.447 139.626 196.176 C 142.019 193.904 145.807 194.003 148.079 196.397 C 150.35 198.791 150.251 202.578 147.857 204.85 Z " fill="rgb(159,187,199)"/></g><g><path d=" M 210.137 145.216 C 206.153 150.194 198.878 151.001 193.9 147.018 C 188.922 143.034 188.115 135.759 192.098 130.781 C 196.082 125.803 203.357 124.996 208.335 128.979 C 213.313 132.963 214.12 140.238 210.137 145.216 Z " fill="rgb(199,217,231)"/><path d=" M 190.217 141.75 L 212.053 134.347 C 213.272 137.952 212.709 142.077 210.155 145.27 C 206.169 150.249 198.901 151.057 193.919 147.07 C 192.129 145.637 190.9 143.773 190.217 141.75 Z " fill-rule="evenodd" fill="rgb(175,203,218)"/><path d=" M 205.787 141.734 C 203.725 144.311 199.959 144.729 197.382 142.667 C 194.805 140.605 194.388 136.839 196.45 134.262 C 198.512 131.686 202.277 131.268 204.854 133.33 C 207.431 135.392 207.849 139.158 205.787 141.734 Z " fill="rgb(159,187,199)"/></g></g></g></g></g></svg>